<?xml version="1.0" encoding="UTF-8" standalone="no"?>
<!DOCTYPE svg  PUBLIC '-//W3C//DTD SVG 1.1//EN'  'http://www.w3.org/Graphics/SVG/1.1/DTD/svg11.dtd'>
<svg xmlns="http://www.w3.org/2000/svg">
<defs>
<font id="SegoePrintW01-Bold" horiz-adv-x="1492">
<font-face underline-position="-103" font-weight="700" descent="-410" panose-1="2 0 8 0 0 0 0 0 0 0" units-per-em="2048" unicode-range="U+000D-2122" bbox="-357 -1014 2320 2209" x-height="1050" underline-thickness="102" font-family="SegoePrintW01" ascent="1638" cap-height="1459"/>
<missing-glyph horiz-adv-x="0"/>
<glyph glyph-name=".notdef" horiz-adv-x="0"/>
<glyph glyph-name=".null" horiz-adv-x="0"/>
<glyph glyph-name="uni000D" horiz-adv-x="0" unicode=""/>
<glyph glyph-name="space" horiz-adv-x="819" unicode=" "/>
<glyph glyph-name="exclam" horiz-adv-x="660" unicode="!" d="M220 19q-110 0 -110 122q0 46 45 106t97 60q34 0 85 -33t51 -56l-10 -62q-9 -66 -65 -101.5t-93 -35.5zM362 479q-100 0 -155 41q-4 52 -4 105q0 145 32 296q49 223 49 334q0 11 10.5 83.5t63.5 110.5t90 38q40 0 76.5 -29.5t36.5 -64.5q0 -28 -40.5 -207.5t-80.5 -330.5 q-42 -157 -44 -251q-2 -71 -34 -125z"/>
<glyph glyph-name="quotedbl" horiz-adv-x="823" unicode='&quot;' d="M584 756q-107 0 -107 128q0 59 35 188q31 106 37 135q31 212 53.5 248t79.5 36q45 0 77.5 -31t32.5 -63q0 -9 -25 -128l-27 -125q-10 -52 -16 -98q-30 -210 -53.5 -250t-86.5 -40zM207 773q-56 0 -80 41t-24 87q0 25 9 57q22 84 38 192q2 15 38 208l6 33q16 100 99 100 q40 0 71.5 -35.5t31.5 -70.5q0 -138 -44 -260q-17 -48 -18 -72q-12 -172 -36 -226t-91 -54z"/>
<glyph glyph-name="numbersign" horiz-adv-x="1628" unicode="#" d="M901 753q15 44 21 77q-169 -16 -241 -35q-41 -100 -67 -223q41 3 66 4q126 5 173 31zM1113 853q-14 -57 -52 -185q-9 -30 -14 -50q242 51 259 51q121 0 143.5 -45.5t22.5 -84.5q0 -32 -33.5 -57.5t-77.5 -25.5q-14 0 -49 14t-45 14q-48 0 -125 -16q-78 -17 -141 -17 q-20 -59 -34 -97q-15 -38 -15 -64l4 -53q0 -48 -30.5 -86.5t-77.5 -38.5q-36 0 -64.5 43t-28.5 76q0 92 29 159q6 14 6 22l-217 -32q-88 -294 -171 -294q-35 0 -57.5 21.5t-22.5 50.5q0 107 52 220l-29 1l-144 -4q-168 0 -168 82q0 38 58 74.5t110 36.5q35 0 125 -6 q89 -7 103 -7q18 50 28 105q19 80 32 114q-34 -3 -134 -20q-89 -15 -142 -15q-156 0 -156 78q0 76 190 101q51 6 97 15q119 23 174 25q44 43 96 180q33 91 66 124.5t89 33.5q65 0 65 -72q0 -62 -73 -211q-10 -21 -15 -36q26 5 233 30q11 33 33 137q55 265 73 286 q35 49 93 49q40 0 64 -26.5t24 -61.5q0 -38 -50 -170q-17 -44 -24 -80q-5 -22 -17 -53q-10 -40 -17 -59q177 27 277 27q89 0 112.5 -22t23.5 -71q0 -27 -18.5 -53.5t-47.5 -26.5q-275 0 -392 -30z"/>
<glyph glyph-name="dollar" horiz-adv-x="1120" unicode="$" d="M686 464q10 11 48 30q29 15 29 26q0 4 -2 10q-2 5 -6 10q-3 6 -10 14q-6 6 -12 13t-13 14q-6 5 -12 11l-6 5l-1 1q-12 -90 -15 -134zM538 1027q-108 -26 -143 -63q7 -10 65 -42.5t65 -32.5zM750 1063l-10 -92q-20 -156 -20 -189q34 -28 136 -79q57 -30 79.5 -73.5 t22.5 -115.5q0 -160 -288 -252l-25 -288q0 -18 10 -78t10 -71q0 -25 -33.5 -45.5t-69.5 -20.5q-121 0 -121 128l19 288q-23 -5 -48 -8t-50 -8q-149 -45 -213 -45q-54 0 -98 23.5t-44 54.5q0 79 64.5 113t244.5 50q160 14 160 45q30 239 30 296q-56 27 -103 44 q-108 39 -144.5 67t-70.5 74.5t-34 110.5t120.5 132.5t280.5 93.5q2 20 2 47v212q0 45 55 70q31 20 77 20q102 0 102 -135q0 -26 -23 -153q-5 -25 -5 -28h40q49 0 86 10q27 8 60 8q103 0 103 -104q0 -70 -46.5 -86t-255.5 -16z"/>
<glyph glyph-name="percent" horiz-adv-x="1491" unicode="%" d="M1089 460q-37 0 -62.5 -59.5t-25.5 -116.5q0 -23 3 -47l15 1l56 -4q18 0 109 65q20 32 20 75q0 32 -80 66q-20 8 -35 20zM1401 383q0 -47 -16.5 -101t-61.5 -90.5t-101 -73t-109 -49t-115 -12.5q-129 0 -169.5 75.5t-40.5 136.5q0 111 88 236t182 125q137 0 240 -68.5 t103 -178.5zM478 1198h-18q-66 0 -115.5 -85.5t-49.5 -151.5q0 -29 23 -50q36 -18 67 -18q37 0 76.5 60.5t39.5 118.5q0 36 -23 126zM1115 1158q-66 -123 -186 -299q-6 -13 -83 -130q-138 -209 -234 -426q-51 -115 -91 -196q-54 -71 -97 -71q-88 0 -88 95q0 48 79 241 t202 364q18 24 267 422q-94 21 -107 21q-1 0 -6 -0.5t-87 -0.5q8 -35 8 -67q0 -87 -58.5 -186t-155 -151t-174.5 -52q-92 0 -143 62.5t-51 170.5q0 42 46 169t152.5 203.5t231.5 76.5q55 0 111 -53q101 -14 497 -43q30 -39 30 -62q0 -52 -63 -88z"/>
<glyph glyph-name="ampersand" horiz-adv-x="1795" unicode="&amp;" d="M891 225q-159 162 -282 385q-189 -130 -189 -298q0 -82 58 -128t159 -46q128 0 254 87zM728 910q163 130 163 270q0 52 -25.5 90.5t-61.5 38.5q-46 0 -81.5 -55t-35.5 -130q0 -113 41 -214zM1228 252q105 -74 214 -74q39 0 95 21q9 3 21 3q60 0 60 -80 q0 -45 -59.5 -106.5t-148.5 -61.5q-192 0 -370 134q-222 -159 -472 -159q-179 0 -289.5 103.5t-110.5 270.5q0 266 327 473q23 14 23 35q0 13 -9 38q-49 133 -49 251q0 174 103.5 288t262.5 114q130 0 206.5 -96t76.5 -220q0 -208 -263 -410q-32 -24 -32 -49q0 -52 106 -189 t160 -177q120 128 153 249l-37 4q-91 7 -122.5 39.5t-31.5 87.5q0 38 32 68.5t63 30.5q25 0 96 -21q71 -22 155 -22q78 0 160 10q81 10 109 10q78 0 78 -63q0 -117 -159 -129q-58 -5 -79 -14.5t-35 -36.5q-107 -204 -234 -322z"/>
<glyph glyph-name="quotesingle" horiz-adv-x="469" unicode="&apos;" d="M129 1116q16 110 69 235.5t125 125.5q47 0 73 -30t26 -72q0 -29 -24 -85q-17 -36 -33 -94q-6 -21 -19 -62q-30 -102 -30 -198q0 -131 -27.5 -167t-79.5 -36q-48 0 -79.5 48t-31.5 105q0 69 31 230z"/>
<glyph glyph-name="parenleft" horiz-adv-x="819" unicode="(" d="M261 404q0 -33 10 -69q9 -36 14 -83l22 -120q30 -140 81 -233.5t132 -161.5q116 -98 116 -160q0 -39 -38 -62t-95 -23q-38 0 -97.5 39.5t-147.5 154t-118.5 192.5t-63 258t-32.5 301q0 147 12 216t52.5 176.5t123 267t99.5 180t124 118.5l85 80q56 53 97 73t104 20 q80 0 80 -79q0 -34 -67 -97q-119 -112 -211 -216t-191.5 -308t-99.5 -372q0 -27 9 -92z"/>
<glyph glyph-name="parenright" horiz-adv-x="741" unicode=")" d="M204 -508q-51 0 -88 30t-37 63q0 46 123 199q81 97 159.5 299t78.5 250q0 169 -26.5 321t-99.5 325.5t-122.5 255t-179.5 200.5q-24 23 -24 60q0 26 39.5 58.5t83.5 32.5q95 0 239 -212.5t174 -316.5q10 -35 24 -75q62 -185 84.5 -297.5t22.5 -278.5q0 -188 -64.5 -354.5 t-145.5 -275.5q-86 -114 -102 -144q-41 -84 -70.5 -112t-68.5 -28z"/>
<glyph glyph-name="asterisk" horiz-adv-x="1049" unicode="*" d="M1033 1130q0 -48 -63 -64q-11 -4 -258 -20q-53 -4 -54 -6l131 -157q64 -76 64 -107q0 -37 -28 -66t-67 -29q-58 0 -109 81q-58 63 -118 153q-13 18 -35 38q-2 -3 -4 -5l-4 -6q-19 -43 -74 -146t-84.5 -133t-56.5 -30q-28 0 -69 33.5t-41 71.5q0 11 56 96.5t114 157.5 q-70 0 -138 -18q-99 -27 -119 -27q-26 0 -43 29t-17 49q0 51 73 79.5t131 28.5q102 0 144 7q-7 10 -37 45l-26 30q-76 100 -76 144q0 21 23.5 44.5t46.5 23.5q71 0 205 -179q91 99 166 200q32 43 79 43q41 0 70 -21.5t29 -53.5q0 -27 -43 -64q-11 -10 -19 -21 q-53 -96 -104 -137q31 6 68 9q37 2 74 13q77 15 129 15q44 0 64 -40t20 -61z"/>
<glyph glyph-name="plus" horiz-adv-x="1165" unicode="+" d="M1090 497q-28 -37 -119 -37q-18 0 -86 7t-91 7h-179q-12 -47 -12 -104q0 -185 -5 -205q-4 -15 -4 -34t-17.5 -35.5t-71.5 -16.5q-63 0 -84 21t-21 80l30 295q-64 3 -106 3t-60 -3l-85 -15q-43 0 -74.5 29t-31.5 65q0 28 25 59.5t59 31.5q30 0 110 -11l145 7h33q4 22 4 46 q0 42 -9 162q-4 44 -4 66q0 165 109 165q39 0 65 -41.5t26 -68.5q0 -44 -8 -136q-9 -92 -9 -111v-51q0 -9 2 -24l33 -1l264 4q101 0 140.5 -25t39.5 -112z"/>
<glyph glyph-name="comma" horiz-adv-x="696" unicode="," d="M137 -129q46 8 131.5 49.5t109 106t23.5 67.5q0 86 -20 115q-19 29 -19 52q0 28 22 62.5t55 34.5q34 0 89.5 -23t64 -40.5t25.5 -77t17 -104.5q0 -19 -41.5 -114t-108.5 -144t-133 -61q-13 -2 -20 -4q-113 -41 -152 -41q-66 0 -66 73q0 26 23 49z"/>
<glyph glyph-name="hyphen" horiz-adv-x="1309" unicode="-" d="M518 682q231 0 331 13q42 6 89 6q23 0 93 -25t84 -52.5t14 -50.5q0 -93 -116 -93q-13 0 -99 21q-17 4 -24 4l-91 -6q-21 0 -153 10q-9 1 -25 1q-60 0 -224 -9q-28 -1 -52 -1q-77 0 -107 14q-40 19 -40 70q0 54 72.5 81.5t174.5 27.5q24 0 73 -11z"/>
<glyph glyph-name="period" horiz-adv-x="510" unicode="." d="M212 26q-60 0 -88.5 23.5t-28.5 123.5q0 56 5 85.5t48.5 46.5t125.5 17q61 0 93 -28.5t32 -62.5q0 -56 -17.5 -86t-76 -74.5t-93.5 -44.5z"/>
<glyph glyph-name="slash" horiz-adv-x="1174" unicode="/" d="M394 318q-38 -53 -122 -206q-46 -86 -108.5 -165.5t-91.5 -79.5q-41 0 -76.5 36t-35.5 68q0 57 126 262t256 382q26 31 193 289q15 24 19 29q42 60 160 246q151 237 224 321t121 84q37 0 76 -44t39 -75q0 -23 -71.5 -138.5t-141 -204t-137.5 -182.5z"/>
<glyph glyph-name="zero" d="M1048 1092q-27 -17 -74 -17q-12 0 -46 22q-35 21 -46 21q-103 0 -169.5 -36.5t-174 -139.5t-187.5 -239t-80 -283q0 -59 14.5 -111t33.5 -67.5t65.5 -32t101.5 -16.5q109 0 290.5 101t316 236t134.5 217q0 46 -16.5 115t-30 90.5t-61 71t-71.5 68.5zM367 -24 q-165 0 -261.5 111t-96.5 283q0 196 118.5 430t352.5 390.5t420 156.5q139 0 299 -95.5t213.5 -202.5t53.5 -272q0 -264 -342.5 -532.5t-756.5 -268.5z" unicode="0"/>
<glyph glyph-name="one" d="M903 133l3 -39v-5q0 -74 -169 -74q-34 0 -66 48q-6 9 -9 9q-19 0 -158 -45q-29 -10 -43 -12q-115 -37 -173 -37q-61 0 -98.5 35t-37.5 71q0 49 58 80t212 58q162 32 211 52q5 52 8 105q10 172 104 701q-8 -2 -169 -95q-146 -85 -271 -85q-82 0 -82 70q0 44 27.5 67.5 t102.5 54.5q90 36 229 115l149 86q137 87 176 87q55 0 84 -53t29 -92q0 -32 -30 -65q-72 -308 -94.5 -491.5t-22.5 -360.5q55 7 259 59q122 31 250 31q35 -70 35 -94q0 -35 -16 -55t-78 -40.5t-209 -40.5q-154 -23 -211 -45z" unicode="1"/>
<glyph glyph-name="two" d="M538 237q118 29 368 29q46 0 158 -14t148 -14q34 0 77 19q42 19 89 19q34 0 66 -34.5t32 -60.5q0 -81 -86.5 -121t-168.5 -40q-105 0 -146 12q-142 40 -373 40q-110 0 -203.5 -17.5t-136 -38.5t-80.5 -64q-45 -52 -118 -52q-113 0 -113 95q0 84 57.5 158.5t229.5 174.5 q227 131 354 235.5t207 222t80 180.5q0 73 -56.5 125.5t-143.5 52.5q-39 0 -146.5 -63.5t-175.5 -142.5q-46 -53 -144 -53q-38 0 -68.5 49t-30.5 87q0 43 78 94q25 16 59 40q167 120 260.5 161t244.5 41q135 0 258 -117.5t123 -245.5q0 -171 -196.5 -390t-502.5 -367z" unicode="2"/>
<glyph glyph-name="three" d="M495 587q-121 0 -121 70q0 39 28.5 83.5t207.5 183t326 214.5q-21 0 -278 -45q-251 -45 -283 -45q-203 0 -203 180q0 41 30.5 65t75.5 24q33 0 96 -30q41 -20 80 -20q47 0 145 10q248 24 430 32q21 1 39 1q84 0 128.5 -20.5t44.5 -83.5q0 -55 -46 -102.5t-237 -151.5 q-154 -84 -186 -121q22 2 71 8q55 6 82 6q206 0 318 -80t112 -226q0 -225 -281 -387t-586 -162q-162 0 -267 36t-105 142q0 121 133 121q18 0 42 -12q142 -71 239 -71q211 0 396 83.5t185 224.5q0 80 -82 112t-234 32q-173 0 -300 -71z" unicode="3"/>
<glyph glyph-name="four" d="M937 1086q-31 -25 -66 -51q-143 -107 -192 -160q-65 -71 -289 -243q78 9 238 33q167 25 218 28q4 26 45 194zM1308 464q-96 35 -224 35h-46q-19 -78 -24 -177l-1 -40v-24q0 -50 3 -120q50 -55 50 -82q0 -45 -43 -86.5t-86 -41.5q-71 0 -117.5 34t-46.5 135q0 36 7 122 l9 117q5 88 17 154q-211 0 -345 -33q-154 -39 -260 -39q-67 0 -144 89q38 114 424 437l412 340q18 12 48 36q132 103 171 103q116 0 116 -71l-54 -196q-57 -174 -86 -373q-8 -51 -16 -94l184 -7q128 0 169.5 -34t41.5 -112q0 -33 -29 -59.5t-67 -26.5t-63 14z" unicode="4"/>
<glyph glyph-name="five" d="M710 1065q-59 -58 -154 -203q25 -16 242 -45q228 -31 339.5 -112.5t111.5 -266.5q0 -151 -207 -305.5t-488 -154.5q-167 0 -297.5 67.5t-130.5 131.5q0 121 154 121q40 0 92 -40q100 -59 209 -59q120 0 269 75t149 150q0 92 -79.5 146t-352.5 71q-158 9 -222 61.5 t-64 87.5q0 40 42 90q27 38 84 121q155 230 204.5 251t211 28.5t278.5 7.5q123 0 218 27q67 20 98 20q52 0 112.5 -29.5t60.5 -70.5q0 -30 -43 -83.5t-115 -65t-184 -11.5q-12 0 -138 5q-127 5 -183 5q-150 0 -217 -20z" unicode="5"/>
<glyph glyph-name="six" d="M1173 501q-53 69 -213 69q-297 0 -325 -359q69 -5 97 -5q125 0 277.5 108.5t163.5 186.5zM446 273q4 129 41.5 205.5t103 147t167.5 107t298 36.5q125 0 225.5 -85.5t100.5 -202.5q0 -73 -59 -155.5t-201.5 -174t-230.5 -120.5t-284 -29q-219 0 -341.5 129t-122.5 232 q0 140 37.5 251.5t125 237.5t237.5 273.5t220 181.5t132 34q52 0 90.5 -33t38.5 -75q0 -89 -94 -105q-70 -11 -144 -60t-135.5 -118.5t-131.5 -158.5t-106 -194t-36 -191q0 -87 57 -123q7 -5 12 -10z" unicode="6"/>
<glyph glyph-name="seven" d="M1057 1119q-718 -32 -796 -32q-39 0 -66.5 32.5t-27.5 70.5q0 39 37.5 77.5t78.5 38.5q27 0 288 -12q87 -4 120 -4q224 0 418 22q90 11 166 11q97 0 97 -87q0 -21 -6 -40.5t-110 -137.5q-70 -81 -202.5 -284t-221.5 -400l-5 -10q-53 -111 -69.5 -161t-16.5 -101 q0 -54 -34 -92t-93 -38q-57 0 -94 50t-37 107q0 72 189 424.5t385 565.5z" unicode="7"/>
<glyph glyph-name="eight" d="M971 308q0 45 -63.5 111t-146.5 107q-106 -75 -182.5 -158.5t-76.5 -136.5q0 -26 42 -41.5t73 -15.5q64 0 152.5 10t112.5 19t82 54q7 9 7 31v20zM615 824q14 -7 34 -20q87 -61 113 -75q150 124 185.5 169t35.5 76q0 61 -48 102.5t-111 41.5q-40 0 -130 -42t-129 -83.5 t-39 -53.5q0 -51 89 -115zM1084 760q-74 -49 -126 -85l-29 -20q-12 -8 -14 -10q113 -52 199 -151.5t86 -177.5q0 -102 -36.5 -169.5t-207 -118t-290.5 -50.5q-78 0 -208 33t-165 90.5t-35 131.5q0 95 89.5 191t190.5 152q22 12 46 32q-141 75 -184 112t-80.5 103.5 t-37.5 102.5q0 147 225 271q61 33 118 67q95 56 226 56q44 0 129 -38.5t113.5 -67.5t43.5 -102l2 -30l8 9q7 8 16 17l22 25q88 -23 88 -123q0 -35 -61.5 -113.5t-127.5 -136.5z" unicode="8"/>
<glyph glyph-name="nine" d="M1067 1066q-28 54 -124 54q-115 0 -201.5 -44.5t-172 -141.5t-85.5 -157q0 -50 30 -82t78 -32q78 0 236.5 79.5t179.5 143.5zM1314 1087q0 -32 -26 -95q-85 -203 -161 -490t-76 -359q0 -173 -103 -173q-87 0 -114 73.5t-27 115.5q0 43 56 214l76 242 q-131 -76 -225.5 -103.5t-212.5 -27.5q-97 0 -176 79t-79 184q0 93 46.5 181t156.5 179t158 123t180.5 67.5t189.5 35.5q68 0 113.5 -21t96.5 -66l81 -71q31 -26 45 -82z" unicode="9"/>
<glyph glyph-name="colon" horiz-adv-x="606" unicode=":" d="M284 19q-69 0 -100 29t-31 145q0 48 13.5 70.5t54 47t71.5 24.5q67 0 115.5 -29t48.5 -77q0 -90 -69.5 -150t-102.5 -60zM480 882q0 -55 -56.5 -103t-135.5 -48q-47 0 -84 61v-1q-33 53 -33 89q-1 20 25 63q25 42 53 64q30 22 86 22q19 0 67 -27q9 -6 11 -7 q50 -36 58.5 -50.5t8.5 -53.5v-9z"/>
<glyph glyph-name="semicolon" horiz-adv-x="672" unicode=";" d="M-7 -116q44 10 124 42t111.5 97.5t31.5 78.5q0 99 -18 125q-19 26 -19 51q0 34 25 66t62 32q44 0 79 -14.5t47 -30.5t30.5 -87t18.5 -117q0 -24 -39.5 -115.5t-92 -124.5t-151 -79t-165.5 -46q-64 0 -64 68q0 25 20 54zM282 1018v-1q20 14 52 14q17 0 71 -26 q70 -26 85.5 -57t15.5 -66q0 -51 -61.5 -93t-132.5 -42q-41 0 -72 42t-31 83q0 24 24.5 76.5t48.5 69.5z"/>
<glyph glyph-name="less" horiz-adv-x="1094" unicode="&lt;" d="M367 653q29 -18 60 -31q50 -23 86 -48q39 -29 55 -36t262 -114q114 -51 142 -75.5t28 -73.5q0 -37 -38.5 -75.5t-82.5 -38.5q-16 0 -81 36q-187 105 -317 157q-101 40 -246 134t-145 134q0 45 36 87t102 96q59 48 112 104q89 93 237 203q137 103 155 127q48 63 113 63 q42 0 74 -24.5t32 -63.5q0 -86 -384 -375q-26 -20 -75 -68q-50 -49 -125 -118z"/>
<glyph glyph-name="equal" horiz-adv-x="1278" unicode="=" d="M1137 433q0 -40 -27 -74.5t-54 -34.5q-35 0 -101 12q-60 10 -96 10l-603 -8q-30 0 -70.5 47.5t-40.5 80.5q0 51 81 70t136 19q80 0 229 -5h4q30 0 154 12q34 3 69 3q92 0 204.5 -27.5t114.5 -103.5v-1zM1122 903q0 -111 -111 -111q-31 0 -75 19q-33 12 -45 12 q-9 0 -36 -5q-28 -6 -50 -6l-182 12l-371 -28q-10 -1 -18 -1q-107 0 -107 101q0 132 289 132l126 -8h15q30 0 119.5 2.5t168.5 16.5q7 3 36 3h50q60 0 124 -34t67 -104v-1z"/>
<glyph glyph-name="greater" horiz-adv-x="1170" unicode="&gt;" d="M773 686q-44 54 -89 76q-65 33 -241 132l-31 16q-10 8 -29 14q-70 28 -154.5 105.5t-84.5 158.5q0 76 85 76q28 0 51.5 -13t81.5 -60q57 -43 254.5 -166.5t263.5 -158.5q141 -73 171 -99t30 -76q0 -44 -172 -159q-53 -36 -87 -65q-14 -13 -23 -20q-10 -7 -89.5 -94 t-151.5 -162q-48 -54 -84.5 -83t-81.5 -29q-44 0 -81.5 34.5t-37.5 68.5q0 43 69 96q17 13 30 25q153 180 289 288q80 63 112 95z"/>
<glyph glyph-name="question" horiz-adv-x="1051" unicode="?" d="M489 106q0 -62 -69.5 -106.5t-129.5 -44.5q-63 0 -106 37t-43 93q0 46 80 101q15 10 24 18q26 21 72 21q32 0 81 -34q91 -6 91 -85zM1073 1143q0 -149 -60 -243.5t-140 -132t-331 -124.5q-27 -70 -47 -168q-10 -52 -46 -77t-122 -25q-28 0 -44 40.5t-16 84.5 q0 47 14.5 87.5t75.5 164.5q55 46 100.5 70t173.5 74l135 53q35 15 59 64t24 97q0 34 -15.5 92t-28.5 72.5t-50 26.5t-74 12q-108 0 -146.5 -27t-43.5 -53q-13 -89 -154 -89q-92 0 -92 88q0 53 58.5 121.5t147.5 116.5h-1q75 46 158 48q58 1 116 3h22q97 0 156 -41 q109 -73 139 -136t32 -198v-1z"/>
<glyph glyph-name="at" horiz-adv-x="1682" unicode="@" d="M981 871q-8 5 -15 13q-8 8 -17 13q-89 -11 -171 -135.5t-82 -172.5q0 -26 16 -33t50 -7q33 0 107.5 43.5t74.5 68.5l-5 95v5q0 28 19.5 69t22.5 41zM1014 479q-66 -44 -164 -81.5t-153 -37.5q-84 0 -155.5 65.5t-71.5 132.5q0 156 149.5 341t273.5 185q117 0 175 -38 t58 -76v-10q10 4 24 4q92 0 92 -80q0 -25 -48 -133q-27 -66 -27 -118q0 -15 26 -15q60 0 129 77.5t69 164.5q0 99 -70 220q-25 43 -38 68q-44 80 -134.5 128.5t-137.5 48.5q-148 0 -345 -138.5t-285 -365.5t-88 -344q0 -116 155.5 -227.5t367.5 -111.5q106 0 266 45.5 t270 112.5q74 68 111 68q35 0 63 -23.5t28 -43.5q0 -56 -22 -99q-109 -110 -338 -172t-444 -62q-246 0 -453.5 143t-207.5 368q0 128 104 396.5t330.5 446.5t477.5 178q166 0 307 -105t206.5 -254.5t65.5 -268.5q0 -137 -76.5 -261t-186.5 -162t-141 -38q-86 0 -162 72z"/>
<glyph glyph-name="A" horiz-adv-x="1588" unicode="A" d="M980 629q-24 59 -142 420q-11 33 -15 42l-284 -540q63 11 129 20q44 5 224 42q44 9 88 16zM404 323q-17 -42 -104.5 -185.5t-121.5 -160t-60 -16.5q-36 0 -86.5 39.5t-50.5 81.5q0 39 251 421q137 209 250 414q227 414 277.5 481.5t103.5 67.5q85 0 123 -44 q19 -14 19 -67q0 -39 -7 -63q183 -558 286.5 -789.5t207.5 -335.5q52 -52 63.5 -70t11.5 -48q0 -55 -40 -92.5t-95 -37.5q-76 0 -154.5 88t-148 242t-69.5 173q0 4 -5 4q-54 0 -240.5 -38t-299.5 -74q-29 -9 -51 -9q-39 0 -60 18z"/>
<glyph glyph-name="B" horiz-adv-x="1500" unicode="B" d="M1099 813q187 -66 242.5 -158t55.5 -181q0 -191 -245 -392.5t-514 -201.5q-150 0 -150 91q0 150 209 150h49q98 0 247 113.5t149 230.5q0 71 -61 126.5t-163 55.5q-8 0 -79 -31q-72 -31 -106 -31q-94 0 -122.5 23t-28.5 93q0 49 204 132q116 46 232 157.5t116 188.5 q0 99 -144 99q-135 0 -265 -30t-144 -74t-74 -458t-60 -478l-10 -135q-8 -102 -47 -131.5t-89 -29.5q-134 0 -134 173q0 27 17 97q44 181 85.5 504t41.5 348q0 50 -20 50l-27 -2q-30 -3 -53 18.5t-30 40.5t-7 35q0 99 278 188t584 89q163 0 264.5 -86.5t101.5 -200.5 q0 -82 -65 -166.5t-238 -216.5z"/>
<glyph glyph-name="C" horiz-adv-x="1428" unicode="C" d="M1159 347q76 0 76 -74q0 -92 -220.5 -226.5t-426.5 -134.5q-182 0 -335 119t-153 347q0 232 160 515t396.5 461t461.5 178q134 0 214 -80t80 -187q0 -116 -18 -166.5t-77 -86.5t-96 -36q-38 0 -66 27t-28 73q0 32 17 93q16 61 16 102q0 69 -47 69q-144 0 -323 -154 t-306.5 -382.5t-127.5 -403.5q0 -116 67 -196t196 -80q76 0 191.5 41t213.5 111q99 71 135 71z"/>
<glyph glyph-name="D" horiz-adv-x="1623" unicode="D" d="M453 211q53 0 303.5 77.5t406.5 238.5t156 367q0 165 -115.5 262.5t-302.5 97.5q-128 0 -308 -24q-23 -3 -37 -4q-109 -668 -109 -943q0 -51 6 -72zM192 161q11 49 17 176q23 348 86 728q16 80 16 122q0 18 -16 22q-106 27 -106 93q0 48 43.5 90.5t92.5 42.5l135 -4 q92 0 253 13q137 12 223 12q279 0 451.5 -156.5t172.5 -414.5q0 -288 -266 -520.5t-644 -317.5q-100 -22 -141 -38t-96 -51q-68 -47 -134 -47q-51 0 -91 49t-40 80q0 21 21 61z"/>
<glyph glyph-name="E" horiz-adv-x="1397" unicode="E" d="M1279 1240l-308 -16q-161 -9 -277 -28.5t-125.5 -30t-13.5 -61.5q-5 -50 -36 -176q-25 -96 -30 -157q64 0 184 13t170 25q144 35 223 35q158 0 158 -94q0 -69 -44 -95.5t-138 -36.5q-58 -6 -130 -18q-38 -6 -95 -12q-277 -32 -327 -50h-1q-17 -5 -25.5 -23t-30.5 -148.5 t-22 -182.5q5 -37 46 -37q48 0 252.5 26.5t253.5 36.5q137 29 179 29q127 -18 127 -118q0 -46 -30 -70q-100 -45 -277 -56q-137 -8 -332 -34q-174 -37 -328 -37q-81 0 -117 34.5t-43 107.5l-3 33q-1 8 17 61q40 123 98 547t58 472q0 1 -6 8q-7 6 -23.5 38.5t-16.5 66.5 q0 18 4 29q4 21 43 42t73 21q47 0 95 -6q83 0 540 60q152 20 159 20l14 1q16 1 31 1q149 0 149 -117q0 -24 -32.5 -59.5t-62.5 -43.5z"/>
<glyph glyph-name="F" horiz-adv-x="1210" unicode="F" d="M1229 1248q-24 -16 -58 -16q-20 0 -35 4q-26 5 -86 5q-124 0 -283.5 -18t-218.5 -42q-63 -190 -78 -453q41 6 83 11q155 16 289 41q112 20 180 20q152 0 152 -106q0 -19 -29.5 -51.5t-63.5 -46.5t-126 -27l-268 -33q-154 -19 -228 -38q-11 -5 -16.5 -18.5t-14 -121 t-8.5 -198.5l4 -127q0 -118 -110 -118q-56 0 -106.5 41t-50.5 111q0 130 30 373q2 11 104 739q0 34 -10 58q-15 43 -15 69q0 36 42.5 75.5t78.5 39.5q24 0 50 -6q37 -8 77 -8q39 0 320 32q183 20 273 20q95 0 147.5 -29.5t52.5 -53.5q0 -84 -78 -129v1z"/>
<glyph glyph-name="G" horiz-adv-x="1585" unicode="G" d="M1369 494h1q-24 -82 -48 -220.5t-24 -200.5q0 -115 -1.5 -159t-18.5 -72t-44 -43.5t-61 -15.5q-54 0 -99.5 38t-45.5 89q0 17 28 146q25 115 40 197q-335 -248 -600 -248q-179 0 -284.5 104t-105.5 285q0 286 172 549v-1q183 274 432.5 432t498.5 158q129 0 204 -47.5 t75 -120.5q0 -61 -51.5 -135t-103.5 -74q-33 0 -49 13.5t-33 53.5q-19 45 -43.5 63.5t-71.5 18.5q-152 0 -347.5 -149.5t-317 -354t-121.5 -390.5q0 -196 168 -196q87 0 208 45t258 141t164.5 175t41.5 174q8 56 41.5 74.5t90.5 18.5q131 0 131 -89q0 -35 -34 -114 q-27 -60 -50 -145z"/>
<glyph glyph-name="H" horiz-adv-x="1646" unicode="H" d="M459 562q-26 -54 -38 -298q-5 -143 -39.5 -239t-90.5 -96q-63 0 -105.5 39.5t-42.5 114.5q0 66 29 182q65 262 144 1097q5 34 40.5 65.5t74.5 31.5q132 0 132 -164q0 -74 -30 -235q-35 -185 -35 -270q8 -10 72 -10q140 0 397 22t276.5 57t41 202.5t21.5 356.5 q0 28 42 67.5t90 39.5q55 0 91.5 -35t36.5 -87q0 -75 -37 -272q-42 -221 -70.5 -567t-28.5 -460q0 -54 -52 -107t-93 -53q-44 0 -85 33t-41 85q0 34 27 233q27 198 27 272q0 48 -19 48q-47 0 -186 -11q-140 -12 -191 -12q-37 0 -193.5 -11t-164.5 -19z"/>
<glyph glyph-name="I" horiz-adv-x="645" unicode="I" d="M495 992q-22 -91 -28 -145q0 -29 -20 -149q-33 -214 -33 -292q0 -132 16 -260q2 -18 2 -34q0 -68 -40 -102q-50 -42 -100 -42q-71 0 -101 61.5t-30 213.5q0 94 47 448l55 391q17 86 25 160q12 109 29.5 134.5t62.5 54t68 28.5q58 0 88.5 -47t30.5 -115z"/>
<glyph glyph-name="J" horiz-adv-x="1216" unicode="J" d="M996 1507q44 0 79.5 -29.5t35.5 -67.5q0 -230 -54.5 -628t-184.5 -596t-361 -198q-177 0 -358 125t-181 216q0 51 36.5 82t96.5 31q52 0 108 -57q167 -173 301 -173q105 0 177.5 126t122 448t49.5 612q0 43 45.5 76t87.5 33z"/>
<glyph glyph-name="K" horiz-adv-x="1520" unicode="K" d="M1058 980l-378 -334l418 -316q51 -39 99 -69l47 -31q54 -32 222 -44q12 -39 12 -57q0 -69 -40 -113.5t-118 -44.5q-102 0 -272 124l-388 284q-132 99 -194 126q-45 -13 -73 -337q-12 -129 -42 -188.5t-99 -59.5q-58 0 -89 34.5t-31 89.5q0 24 10 68q23 98 82 696 q53 504 88.5 578.5t110.5 74.5q126 0 126 -140q-63 -258 -91 -593q142 107 204 175q24 24 60 58q70 66 147 142t113 140q51 92 83 129.5t69 37.5q42 0 93.5 -42t51.5 -94q0 -39 -54 -116.5t-167 -177.5z"/>
<glyph glyph-name="L" horiz-adv-x="1285" unicode="L" d="M1107 48q-24 0 -83 6q-59 5 -87 5q-273 0 -530 -81q-106 -34 -151 -34q-61 0 -95 48t-34 92q0 18 18 92q23 92 37 210l90 829q11 118 19.5 153t43.5 63t95 28q48 0 84 -36t36 -78q0 -38 -18 -136q-26 -140 -73 -538t-47 -421q0 -29 10 -29q38 0 209 27q80 13 162 17 q234 11 328 34q30 7 44 7q55 0 86 -32.5t31 -77.5q0 -67 -53.5 -107.5t-121.5 -40.5z"/>
<glyph glyph-name="M" horiz-adv-x="1934" unicode="M" d="M1551 1101l-333 -450q-231 -323 -356 -323q-58 0 -103 66.5t-92 202.5t-66 206q-43 162 -58 184l-51 -260q-24 -126 -49 -231.5t-54.5 -253.5t-36.5 -223q-2 -25 -47.5 -54t-69.5 -29q-48 0 -89.5 44.5t-41.5 85.5q0 96 40 244q165 606 188.5 763t23.5 261q0 54 47 83 t123 29q41 0 82 -54q40 -53 53 -98l139 -389q83 -233 111 -296q108 117 320 407q212 289 290 372t110 83q49 0 109 -41t60 -70q0 -22 -39 -301q-27 -197 -49 -441t-22 -288q0 -54 14 -111q10 -44 10 -83q0 -99 -34.5 -135t-106.5 -36q-131 0 -131 197q0 186 34 454.5 t62 412.5q10 52 13 72z"/>
<glyph glyph-name="N" horiz-adv-x="1651" unicode="N" d="M176 329l73 337q84 400 88 558q3 76 11.5 103.5t46 53t85.5 25.5q31 0 71 -20t67 -127q42 -173 217 -460t315 -460q38 172 83 447q32 196 60 340q23 120 28 213q5 88 52.5 118t95.5 30q41 0 70.5 -45.5t29.5 -113.5q0 -54 -29 -153q-63 -229 -123 -591t-60 -413v-34 q0 -58 -10 -86t-48.5 -52.5t-100.5 -24.5q-37 0 -53.5 7t-44.5 40.5t-59 88.5q-48 83 -71 113q-239 304 -460 709q-30 -124 -92 -580l-12 -90q-8 -47 -14 -136q-7 -107 -51.5 -154t-85.5 -47q-65 0 -92.5 33.5t-27.5 134.5q0 80 40 230z"/>
<glyph glyph-name="O" horiz-adv-x="1642" unicode="O" d="M354 438q0 -123 73 -205t168 -82q268 0 503 257.5t235 546.5q0 102 -39 164.5t-132.5 104t-200.5 41.5q-193 0 -400 -279t-207 -548zM532 -69q-169 0 -300 162.5t-131 335.5q0 204 125 458t322.5 415t412.5 161q167 0 275.5 -40t200 -117.5t122 -160t30.5 -226.5 q0 -127 -81.5 -308.5t-237 -342.5t-316.5 -249t-422 -88z"/>
<glyph glyph-name="P" horiz-adv-x="1443" unicode="P" d="M547 1204l-59 -526q288 48 506 170.5t218 262.5q0 167 -264 167q-183 0 -401 -74zM458 453q-25 -232 -25 -372q0 -55 -33 -98t-90 -43q-123 0 -123 143q0 79 58 534q47 368 47 439q0 81 -7 92q-65 33 -65 119q0 84 271 146.5t464 62.5q226 0 360 -93t134 -251 q0 -228 -246 -400.5t-598 -244.5q-129 -27 -147 -34z"/>
<glyph glyph-name="Q" horiz-adv-x="1653" unicode="Q" d="M806 212q-15 24 -36 48q-87 94 -87 113q0 37 61.5 82t129.5 45q59 0 75 -67q11 -46 40 -86t45 -40q79 0 180.5 145.5t101.5 280.5q0 193 -125.5 361.5t-193.5 168.5q-124 0 -281 -138.5t-264.5 -339.5t-107.5 -351q0 -118 74.5 -182t180.5 -64q92 0 207 24zM1268 1310 q125 -117 201 -268.5t76 -284.5q0 -154 -102.5 -320t-271.5 -292q186 -219 222.5 -273t36.5 -74q0 -38 -61 -81.5t-86 -43.5q-52 0 -99 50q-41 85 -126.5 201.5t-88.5 116.5q-12 0 -44 -8q-171 -46 -317 -46q-214 0 -365 116.5t-151 314.5q0 222 159 478.5t400.5 433.5 t434.5 177q62 0 122 -63.5t60 -133.5z"/>
<glyph glyph-name="R" horiz-adv-x="1489" unicode="R" d="M278 1205l-13 23q-32 50 -32 74q0 48 49 83.5t89 35.5q18 0 46 -3q28 -4 34 -4q295 46 414 46q223 0 352.5 -105.5t129.5 -260.5q0 -148 -127.5 -281t-341.5 -218q356 -288 540 -396q65 -39 65 -100q0 -40 -45.5 -80t-85.5 -40q-58 0 -132 50t-209 157.5t-156 128.5 q-190 159 -274 211q-106 0 -106 105q0 49 47 84.5t107 35.5q17 0 37 -5q19 -6 27 -6q64 0 237 107t173 247q0 70 -72.5 120t-184.5 50q-133 0 -214.5 -16t-89 -22.5t-18 -31.5t-44 -205.5t-61.5 -396t-28 -317.5q0 -65 10 -117q9 -52 9 -90q0 -36 -42.5 -77.5t-92.5 -41.5 q-139 0 -139 192q0 156 34.5 437t81.5 494q7 34 12 61z"/>
<glyph glyph-name="S" horiz-adv-x="1304" unicode="S" d="M1059 1075q0 99 -51 137.5t-150 38.5q-169 0 -313.5 -82.5t-144.5 -181.5q0 -63 54.5 -107.5t281.5 -110.5q238 -69 353.5 -151.5t115.5 -198.5q0 -193 -294 -353.5t-611 -160.5q-103 0 -165 43t-62 106q0 50 28 93t67 43q24 0 44 -8q105 -45 196 -45q156 0 350.5 87.5 t194.5 171.5q0 35 -48.5 67.5t-197.5 81.5q-217 71 -326.5 117t-166 120.5t-56.5 179.5q0 187 218 348t512 161q169 0 266.5 -67t97.5 -153q0 -176 -193 -176z"/>
<glyph glyph-name="T" horiz-adv-x="1372" unicode="T" d="M901 1186q-9 -8 -16 -45t-40.5 -344t-33.5 -491q0 -76 18 -170q5 -14 5 -32q0 -54 -31.5 -97t-80.5 -43q-33 0 -83.5 32.5t-60.5 110.5t-10 203q0 171 40 509t48 345q-28 0 -224 -15q-197 -15 -229 -15q-103 0 -143 26.5t-40 83.5q0 51 42.5 78t215.5 27q288 0 565 38 q312 48 473 48q180 0 219 -42.5t39 -84.5q0 -97 -86 -97q-28 0 -90 6q-63 5 -147 5q-253 0 -350 -36z"/>
<glyph glyph-name="U" horiz-adv-x="1583" unicode="U" d="M715 -67q-103 0 -249.5 67t-223.5 227.5t-77 346.5q0 95 28 251l32 185q7 47 15 92q12 69 21 133q14 110 49 165.5t108 55.5q36 0 73.5 -56.5t37.5 -86.5q0 -21 -48 -220q-12 -50 -41.5 -244.5t-29.5 -263.5q0 -255 111.5 -344t188.5 -89q254 0 351 108.5t124 354.5 q5 45 12 85q10 102 17 195q24 353 69.5 442t129.5 89q104 0 104 -135q0 -80 -39 -298q-23 -131 -31 -257q-18 -303 -83 -444t-235.5 -250t-413.5 -109z"/>
<glyph glyph-name="V" horiz-adv-x="1465" unicode="V" d="M1620 1373q2 -10 -74 -118q-116 -163 -184.5 -274t-255.5 -424q-114 -190 -148 -242q-94 -139 -113 -214q-15 -48 -69.5 -78t-129.5 -30q-33 0 -62.5 50t-79.5 189q-62 167 -173 446q-231 577 -231 597q0 36 34.5 97t97.5 61q50 0 89 -36.5t71 -198.5 q22 -115 142.5 -423.5t188.5 -456.5q15 22 68 118q12 21 16 27q138 221 230 397q168 322 282.5 480t190.5 158q111 0 111 -110v-8q0 -4 -1 -7z"/>
<glyph glyph-name="W" horiz-adv-x="2070" unicode="W" d="M1598 39q-15 -24 -52.5 -41.5t-62.5 -17.5q-67 0 -121.5 68t-160.5 345.5t-117 326.5l-247 -445q-205 -369 -273 -369q-49 0 -84 23.5t-66.5 92.5t-85.5 307.5t-97.5 482t-57.5 300.5q-9 38 -17 61q-26 80 -26 116q0 44 39 85.5t91 41.5q95 0 133 -151.5t43 -214.5 l26 -169q12 -85 31 -183q20 -102 32 -174q40 -241 52 -266q187 298 247 406.5t178 360.5q14 25 45.5 45.5t64.5 20.5q43 0 72 -44t99 -226q3 -11 10 -27l81 -214q108 -287 119 -294q286 541 343 1108q0 39 34.5 61.5t79.5 22.5q62 0 88 -38.5t26 -86.5q0 -99 -54 -312.5 t-160 -461.5l-29 -69q-11 -29 -161 -338q-46 -95 -62 -133z"/>
<glyph glyph-name="X" horiz-adv-x="1498" unicode="X" d="M750 909q2 0 24 28q391 430 462.5 491t98.5 61q38 0 86 -40t48 -80q0 -35 -106 -126q-89 -79 -207 -203l-40 -39q-243 -229 -243 -264q0 -18 148.5 -192t223.5 -219q78 -48 123.5 -106.5t45.5 -77.5q0 -38 -33.5 -70.5t-78.5 -32.5q-90 0 -175 69.5t-229 257.5 q-121 156 -177 221q-26 -30 -125 -134q-273 -287 -304 -380q-37 -99 -54.5 -128t-56.5 -48.5t-96 -19.5q-111 0 -111 104q0 76 119.5 227.5t364.5 398.5l111 116q18 18 26 29q-17 29 -50 68q-64 74 -210 274.5t-146 244.5q0 51 36.5 101t75.5 50q43 0 77 -24t74 -105 q110 -221 298 -452z"/>
<glyph glyph-name="Y" horiz-adv-x="1370" unicode="Y" d="M1152 976q-261 -271 -278 -311q-31 -84 -71 -553q-7 -104 -22.5 -121t-58 -32.5t-64.5 -15.5q-111 0 -111 150q0 67 30 253q30 185 30 259q0 43 -12 80q-83 89 -202 250q-138 184 -197 228q-118 85 -149.5 130.5t-31.5 82.5q0 23 43.5 59t79.5 36q151 0 471 -428 q106 -144 146 -180q38 41 78 90q39 49 80 90q242 249 326 365q80 112 177 112q44 0 72 -36t28 -75q0 -59 -364 -433z"/>
<glyph glyph-name="Z" horiz-adv-x="1604" unicode="Z" d="M1493 1273q-2 -7 -16 -16q-30 -20 -59.5 -44t-146.5 -164q-150 -178 -271.5 -306t-418.5 -414l-104 -101q94 8 242 24q211 23 234 23q72 0 118 4q46 3 83 3q290 0 290 -141q0 -57 -29.5 -89.5t-79.5 -32.5q-40 0 -94 14q-86 23 -218 23q-50 0 -292 -16q-247 -14 -325 -23 t-178 -36q-78 -22 -100 -22q-100 0 -100 99q0 80 54 120q133 99 346 300.5t401 398.5q30 32 71 73q166 166 242 261q-16 0 -363 -40q-219 -26 -330 -26q-68 0 -140 17q-106 47 -106 118q0 33 41 76t67 43q19 0 50 -11q31 -12 47 -12l185 -2h17q69 0 150 7q67 6 214 13 q165 8 226 19q184 31 232 31q83 0 83 -89q0 -50 -22 -82z"/>
<glyph glyph-name="bracketleft" horiz-adv-x="827" unicode="[" d="M453 1329l-1 -4v-7l2 -5q2 -10 5 -31q3 -26 3 -34q0 -52 -61 -1150q-11 -198 -11 -218l6 -128q0 -30 -5 -30q11 -8 39 -8q60 0 121 15q66 16 73 16q117 0 117 -104q0 -52 -26.5 -80.5t-63 -36.5t-194.5 -27q-36 -5 -58 -12q-83 -28 -130 -28q-48 0 -79.5 36t-31.5 77 l15 163q-2 30 -5 61q-5 65 -5 109q0 90 15 253l5 59q2 27 4 43l28 414q19 273 19 386q0 168 -35 265q-15 44 -22 92q0 74 52.5 103t152.5 29q70 0 235 5h24q218 0 218 -124q0 -40 -51 -70.5t-135 -30.5h-57z"/>
<glyph glyph-name="backslash" horiz-adv-x="1120" unicode="\" d="M894 -172l-445 899q-130 256 -205 365q-21 30 -40 59q-27 40 -36 54q-8 11 -15 23t-18 29q-127 195 -127 258q0 34 45 67.5t95 33.5q40 0 73 -31.5t103 -174.5q9 -20 14 -26q63 -81 167 -271q26 -47 52 -92q53 -90 170 -330q79 -165 115 -229q147 -263 208 -385.5 t61 -175.5q0 -111 -151 -111q-39 0 -66 38z"/>
<glyph glyph-name="bracketright" horiz-adv-x="854" unicode="]" d="M354 -239q23 3 35 3q0 505 15.5 746t103.5 771q0 2 6 15q26 60 29 77q-113 -1 -222 -31q-60 -16 -99 -16q-42 0 -92.5 27.5t-50.5 60.5q0 42 47 98.5t92 56.5q22 0 68 -6h8q32 0 149 16q189 27 227 27q48 0 89 -40.5t41 -79.5q0 -60 -35 -122q-9 -16 -20 -61.5 t-50 -272.5l-52 -313q-13 -87 -19.5 -214t-7.5 -266l-17 -442q0 -17 7 -78q9 -53 9 -85q0 -110 -123 -110l-159 17h-7q-28 0 -126 -12q-99 -11 -131 -11q-40 0 -76 25t-36 51q0 160 115 160q28 0 72 -3q43 -4 57 -4z"/>
<glyph glyph-name="asciicircum" horiz-adv-x="1174" unicode="^" d="M590 1079q-27 -29 -49 -60q-27 -37 -49 -65q-77 -98 -112 -164q-8 -20 -64 -112l-21 -35q-26 -44 -52.5 -70.5t-70.5 -26.5q-50 0 -81.5 38t-31.5 80q0 39 108 168q29 34 55 77q22 38 143 205q43 60 47 68q3 4 5 8q27 55 76 113t111 58q37 0 57 -17.5t51 -68.5 q96 -163 228 -309q76 -83 135.5 -178.5t59.5 -141.5q0 -30 -33 -70.5t-67 -40.5q-32 0 -67 32.5t-57 76.5q-23 42 -157 222t-164 213z"/>
<glyph glyph-name="underscore" horiz-adv-x="850" unicode="_" d="M852 -205q-24 0 -104 9q-80 8 -105 8q-56 0 -239 -12q-183 -13 -240 -13q-17 0 -83 4t-83 4q-61 0 -61 66q0 24 17.5 41.5t43.5 17.5l154 10q37 0 101 -4t122 -4q46 0 134 9q90 8 138 8q16 0 101 -9q86 -10 104 -10q61 0 61 -74q0 -30 -12.5 -40.5t-48.5 -10.5z"/>
<glyph glyph-name="grave" horiz-adv-x="639" unicode="`" d="M330 1179l-47 31q-42 26 -159 117t-117 149q0 27 42 61t82 34q20 0 52 -23t134 -115l219 -194q69 -61 69 -109q0 -93 -101 -93q-32 0 -174 142z"/>
<glyph glyph-name="a" horiz-adv-x="1198" unicode="a" d="M738 890q-101 0 -262.5 -223.5t-161.5 -379.5q0 -82 34 -82q118 0 290.5 209.5t172.5 366.5q0 50 -22.5 79.5t-50.5 29.5zM798 335q-263 -347 -508 -347q-90 0 -155 71t-65 181q0 265 236 564.5t476 299.5q122 0 160 -123q115 0 115 -88q0 -42 -22 -152 q-40 -206 -40 -329q0 -128 17.5 -180t25.5 -68t48 -34q40 -19 40 -53q0 -51 -51.5 -85t-107.5 -34q-171 0 -171 311q0 31 2 66z"/>
<glyph glyph-name="b" horiz-adv-x="1188" unicode="b" d="M331 261q42 -70 94 -70q94 0 208.5 86.5t199 243.5t84.5 261q0 99 -31 99q-159 0 -357 -232.5t-198 -387.5zM213 971q97 575 139.5 681t148.5 106q82 0 82 -145q0 -99 -82 -411q-43 -154 -104 -466q124 165 270.5 267t261.5 102q94 0 156.5 -80.5t62.5 -189.5 q0 -308 -236.5 -579t-502.5 -271q-80 0 -149 43.5t-78 111.5q-4 37 -15 49t-23 26q-29 30 -29 84q0 62 31 258z"/>
<glyph glyph-name="c" horiz-adv-x="1034" unicode="c" d="M408 -55q-165 0 -251 90t-86 250q0 252 205 545t402 293q95 0 162 -94.5t67 -196.5q0 -96 -35.5 -129.5t-68.5 -33.5q-97 0 -113 134q-12 98 -49 98q-78 0 -206 -222t-128 -389q0 -135 146 -135q161 0 325 114q77 55 122 55q55 0 55 -55q0 -77 -176.5 -200.5 t-370.5 -123.5z"/>
<glyph glyph-name="d" horiz-adv-x="1350" unicode="d" d="M709 847q-131 0 -273.5 -200t-142.5 -366q0 -97 72 -97q122 0 291 217t169 343q0 38 -32 70.5t-84 32.5zM820 334q-259 -367 -521 -367q-106 0 -171 83.5t-65 212.5q0 261 213.5 519t432.5 258q126 0 179 -66q75 328 89 410q30 152 50 202t61 77.5t71 27.5q51 0 78 -42 t27 -106q0 -28 -44 -161q-72 -216 -133.5 -522t-61.5 -487q0 -173 76 -173q39 0 83 21q44 20 62 20q49 0 49 -57q0 -69 -99.5 -137.5t-188.5 -68.5q-96 0 -143 92.5t-47 205.5q0 28 3 58z"/>
<glyph glyph-name="e" horiz-adv-x="1061" unicode="e" d="M337 521q158 32 278.5 135t120.5 187q0 33 -18.5 55.5t-47.5 22.5q-87 0 -193 -128t-140 -272zM1008 344q0 -104 -175 -248.5t-395 -144.5q-169 0 -266 106.5t-97 296.5q0 280 198 525t423 245q112 0 180 -71t68 -169q0 -174 -167 -331.5t-428 -217.5q-30 -7 -30 -36 q0 -48 42.5 -91.5t113.5 -43.5q201 0 399 207q38 40 74 40q60 0 60 -67z"/>
<glyph glyph-name="f" horiz-adv-x="759" unicode="f" d="M387 509l-17 -179q-8 -86 -8 -170q0 -76 14 -176q-10 -35 -50 -60t-84 -25q-137 0 -137 174q0 77 43 368q30 209 30 311q0 6 -12 14q-69 44 -69 84q0 52 77 113q37 29 45.5 67.5t24.5 121.5q54 319 167.5 453.5t288.5 134.5q102 0 172.5 -66.5t70.5 -164.5 q0 -88 -40.5 -182.5t-106.5 -94.5q-29 0 -49 18.5t-20 48.5l6 87q0 156 -65 156q-81 0 -151.5 -203.5t-70.5 -346.5q0 -15 19 -15q207 0 251 1t46 1q81 0 81 -66t-103.5 -97.5t-217.5 -31.5q-77 -7 -100 -13q-24 -148 -35 -261v-1z"/>
<glyph glyph-name="g" horiz-adv-x="1172" unicode="g" d="M822 862q-74 0 -194 -88.5t-222 -238.5t-102 -249q0 -52 38 -52q129 0 256 104.5t205.5 240.5t78.5 206q0 35 -18 56t-42 21zM798 306q-111 -125 -258.5 -205.5t-254.5 -80.5q-106 0 -164.5 62t-58.5 171q0 155 117.5 345t326 330.5t375.5 140.5q92 0 159 -50 q16 -12 28 -20q24 -17 44.5 -62.5t20.5 -73.5q0 -18 -38 -121q-39 -107 -54.5 -207.5t-61.5 -501.5q-41 -349 -195 -510t-342 -161q-197 0 -382.5 132.5t-185.5 218.5q0 76 74 76q29 0 118 -58q228 -150 391 -150q124 0 208 155.5t133 569.5z"/>
<glyph glyph-name="h" horiz-adv-x="1278" unicode="h" d="M340 461q166 311 286.5 423.5t243.5 112.5q85 0 141.5 -58.5t82.5 -304.5q11 -117 28 -189t38 -127.5t60 -104.5q30 -39 30 -75t-34.5 -66t-79.5 -30q-89 0 -158 97t-82 268q-16 209 -34.5 267t-61.5 58q-58 0 -225.5 -231.5t-241.5 -370.5q-46 -105 -71 -136t-62 -31 q-61 0 -99 30t-38 85q0 27 27 169q102 537 167 1143q16 146 61.5 201.5t83.5 55.5q53 0 92 -41t39 -114q0 -112 -27 -258t-101 -466q-45 -193 -65 -307z"/>
<glyph glyph-name="i" horiz-adv-x="588" unicode="i" d="M166 562q10 53 18 101q32 182 32 208q0 74 32.5 124t90.5 50q68 0 106 -32t38 -72t-37 -165l-6 -22q-55 -193 -66 -315t-11 -197q0 -61 21 -163q3 -18 3 -30q0 -23 -43.5 -62t-93.5 -39q-132 0 -132 200q0 170 48 414zM667 1486q0 -71 -64 -124.5t-111 -53.5 q-60 0 -106.5 50t-46.5 100q0 72 46 116.5t132 44.5q67 0 108.5 -39.5t41.5 -93.5z"/>
<glyph glyph-name="j" horiz-adv-x="656" unicode="j" d="M10 -609q-127 0 -247 105.5t-120 182.5q0 29 28.5 57.5t43.5 28.5q21 0 78 -46q113 -106 195 -106q85 0 133 134t86 866q9 180 20.5 284t53.5 147.5t120 43.5q47 0 81.5 -32.5t34.5 -76.5q0 -14 -7 -41q-39 -154 -63.5 -422t-26.5 -337q-12 -289 -51.5 -448.5 t-138 -249.5t-220.5 -90zM420 1340q-54 0 -87.5 52.5t-33.5 111.5q0 48 57.5 97.5t127.5 49.5q38 0 87 -31.5t49 -60.5q0 -34 -25 -115t-67.5 -92.5t-107.5 -11.5z"/>
<glyph glyph-name="k" horiz-adv-x="1207" unicode="k" d="M1041 835h1l-2 -2q-58 -32 -94 -56q-67 -45 -135 -97q-78 -60 -117 -101q-33 -34 -33 -50q0 -18 117 -140.5t185.5 -175.5t135.5 -53l44 1q24 0 38.5 -14.5t14.5 -43.5q0 -41 -51 -95t-175 -54q-73 0 -148 53.5t-230 241.5q-124 151 -135 151q-7 0 -42 -36t-46 -55v-1 q-17 -83 -17 -217q0 -67 -39.5 -109t-96.5 -42q-59 0 -92 33.5t-33 67.5q0 36 25 158q48 237 81 629q32 313 56 488.5t43 230t59 87t86 32.5q44 0 70.5 -36.5t26.5 -88.5q0 -65 -84 -508l-24 -131h1q-44 -289 -45 -334l307 278q235 227 345 227q106 0 106 -85 q0 -106 -103 -153z"/>
<glyph glyph-name="l" horiz-adv-x="582" unicode="l" d="M479 1693q108 0 108 -118q0 -54 -15 -116.5t-82 -309.5q-49 -179 -74.5 -390.5t-25.5 -330.5q0 -127 19 -302q5 -47 5 -59q0 -60 -44 -103t-96 -43q-71 0 -100 67t-29 230q0 351 82.5 827t135 562t116.5 86z"/>
<glyph glyph-name="m" horiz-adv-x="2048" unicode="m" d="M377 59q-12 -103 -115 -103q-131 0 -131 189q0 306 33 523q26 169 26 332q0 39 25 65.5t70 26.5q150 0 150 -182q0 -59 -53 -301q-32 -144 -32 -209q286 628 516 628q93 0 149.5 -74t58.5 -328q1 -232 24 -232q18 0 125 225q119 249 203.5 329t177.5 80q111 0 161 -95.5 t70 -322.5q15 -180 40.5 -272t87.5 -122q50 -24 50 -72q0 -43 -57 -86.5t-116 -43.5q-102 0 -159.5 100.5t-77.5 403.5q-11 146 -23.5 193.5t-37.5 47.5q-22 0 -64 -71.5t-145 -284.5q-91 -192 -156.5 -268t-140.5 -76q-58 0 -116.5 50t-63.5 363q-5 279 -36 279 q-42 0 -202 -248t-241 -444z"/>
<glyph glyph-name="n" horiz-adv-x="1354" unicode="n" d="M953 146q-48 90 -70 336q-22 256 -98 256q-72 0 -249 -266.5t-218 -393.5q-9 -38 -33.5 -63t-48.5 -25q-152 0 -152 139q0 47 30 214q39 216 39 528q0 47 41 100.5t87 53.5q58 0 89 -29t31 -154q0 -95 -57 -368q217 508 484 508q232 0 272 -365q40 -372 92 -372 q23 0 53 10q36 12 57 12q48 0 48 -56q0 -51 -66 -108.5t-166 -57.5q-116 0 -166 101h1z"/>
<glyph glyph-name="o" horiz-adv-x="1154" unicode="o" d="M538 823q-70 -62 -137 -198t-67 -273q0 -83 30.5 -137t80.5 -54q124 0 258 147t134 330q0 103 -43.5 169.5t-121.5 66.5q-74 0 -133 -51h-1zM1058 507q-67 -234 -254.5 -394.5t-374.5 -160.5q-148 0 -244 108.5t-96 266.5q0 258 176 508t427 250q171 0 277 -126.5 t106 -301.5q0 -76 -17 -149v-1z"/>
<glyph glyph-name="p" horiz-adv-x="1320" unicode="p" d="M932 884q-122 0 -316.5 -238t-194.5 -374q0 -35 34.5 -62.5t80.5 -27.5q127 0 291.5 199.5t164.5 385.5q0 62 -19 89.5t-41 27.5zM345 71q-17 -70 -34 -212l-48 -393q-12 -96 -46.5 -133t-84.5 -37q-45 0 -85.5 33.5t-40.5 74.5q0 81 25 187q149 595 163 1235v20 q0 134 7.5 178.5t43 78.5t100.5 34q109 0 109 -167q0 -68 -25 -231l-10 -69q114 190 271 315.5t281 125.5q112 0 190.5 -80t78.5 -201q0 -323 -250.5 -587.5t-495.5 -264.5q-116 0 -149 93z"/>
<glyph glyph-name="q" horiz-adv-x="1170" unicode="q" d="M788 568q72 132 72 235q0 52 -23.5 86.5t-62.5 34.5q-121 0 -298 -219.5t-177 -405.5q0 -99 39 -99q94 0 235 116.5t215 250.5v1zM763 263q-265 -271 -467 -271q-107 0 -169.5 83.5t-62.5 209.5q0 270 249 565.5t514 295.5q124 0 152 -126q4 -12 8 -13q120 -27 120 -127 q0 -56 -41 -223q-27 -100 -85 -400t-71 -421t-17 -267q-2 -88 -11 -119t-42.5 -57.5t-89.5 -26.5q-57 0 -90.5 39t-33.5 100q0 39 38.5 277t64.5 338q23 91 34 143z"/>
<glyph glyph-name="r" horiz-adv-x="1039" unicode="r" d="M363 496l17 32q121 243 260.5 394.5t272.5 151.5q102 0 166.5 -56t64.5 -133q0 -48 -22 -82.5t-61 -34.5q-62 0 -113 51q-36 33 -57 33q-75 0 -251 -233t-212 -524q-11 -84 -49 -117.5t-103 -33.5q-69 0 -98 78.5t-29 256.5q0 73 4 197q4 117 23 286q5 44 7 69 q9 98 20.5 134.5t53.5 68.5t93 32q54 0 82 -31t28 -68q0 -47 -45 -195q-16 -51 -27 -122z"/>
<glyph glyph-name="s" horiz-adv-x="865" unicode="s" d="M584 254q-4 54 -172 132q-206 99 -263 170.5t-57 155.5q0 177 198.5 309.5t370.5 132.5q169 0 169 -147q0 -39 -38.5 -70t-65.5 -31q-11 0 -39 14t-43 14q-89 0 -196 -60t-107 -140q0 -39 38 -75.5t155 -91.5q173 -82 228 -148t55 -146q0 -146 -197.5 -243.5 t-443.5 -97.5q-181 0 -181 131q0 48 38 82t85 34q19 0 59 -14q40 -15 74 -15q94 0 197 30t136 74z"/>
<glyph glyph-name="t" horiz-adv-x="956" unicode="t" d="M521 812q-9 0 -56.5 -223t-47.5 -270q0 -82 17.5 -114.5t57.5 -32.5q56 0 107.5 19.5t135.5 87.5q52 43 88 43q29 0 46.5 -16.5t17.5 -38.5q0 -88 -142 -199.5t-300 -111.5q-132 0 -201.5 78t-69.5 224q0 135 101 539q-64 -7 -89 -7h-21q-46 0 -93.5 30t-47.5 96 q0 84 95 84l214 8q42 121 89 317q28 122 127 122q55 0 86 -33.5t31 -74.5q0 -16 -85 -309q318 28 349 28q53 0 70 -15.5t17 -59.5q0 -89 -151 -113z"/>
<glyph glyph-name="u" horiz-adv-x="1245" unicode="u" d="M817 366q-96 -175 -222.5 -278t-256.5 -103q-77 0 -155.5 81t-78.5 249q0 119 60 359q52 198 52 301q40 84 125 84q58 0 92.5 -38.5t34.5 -77.5q0 -71 -50 -202q-29 -78 -62.5 -220.5t-33.5 -182.5q0 -133 55 -133q87 0 235 167t193 342q45 171 80 224t99 53 q104 0 104 -116q0 -17 -17 -68q-59 -177 -59 -399q0 -260 88 -311q29 -17 29 -42q0 -36 -51 -68t-97 -32q-79 0 -121.5 111.5t-42.5 299.5z"/>
<glyph glyph-name="v" horiz-adv-x="1114" unicode="v" d="M297 10q1 66 -79 284q-161 431 -161 614q0 164 129 164q126 0 126 -150q0 -96 4.5 -136.5t31 -147t52.5 -177.5q15 -43 36 -112q12 -43 21 -60q6 9 42 78q21 42 142 238.5t212.5 313.5t136.5 143t95 26q52 0 85.5 -34t33.5 -83q0 -58 -84 -114q-82 -56 -223.5 -256 t-304.5 -503q-92 -173 -165 -173q-63 0 -130 85z"/>
<glyph glyph-name="w" horiz-adv-x="1801" unicode="w" d="M921 629q-10 -16 -152 -316q-12 -26 -14 -29q-170 -343 -262 -343q-144 0 -252 357.5t-108 595.5q0 86 40.5 139t115.5 53q47 0 83.5 -40.5t36.5 -77.5l-9 -132q-4 -60 -4 -120q0 -106 44 -281.5t62 -175.5q13 0 101 178q115 233 186 352h-1q100 190 177 249 q65 -7 104.5 -39t39.5 -75q0 -34 -3 -50q-4 -17 -4 -31q0 -302 167 -543q11 -11 19.5 13t41.5 148q61 230 138 400.5t126 211.5t111 41q39 0 67.5 -29.5t28.5 -64.5q0 -42 -18 -66q-129 -172 -229 -476q-103 -315 -143 -385t-68 -70q-93 0 -152.5 34.5t-115 128.5 t-100.5 237t-54 206z"/>
<glyph glyph-name="x" horiz-adv-x="1099" unicode="x" d="M472 343q-178 -167 -253 -347q-32 -75 -68 -114q-87 5 -128 35.5t-41 100.5q0 62 53.5 153.5t265.5 286.5q32 30 54 52q-191 280 -191 437q0 165 145 165q101 0 108 -148q6 -152 112 -315q52 47 111 111q17 18 32 33q126 133 181 236q36 65 59.5 84t69.5 19q51 0 88 -36 t37 -88q0 -109 -465 -529q158 -194 337 -293q22 -13 42 -31q8 -19 8 -41q0 -51 -41 -89.5t-100 -38.5q-148 0 -416 357z"/>
<glyph glyph-name="y" horiz-adv-x="1206" unicode="y" d="M1078 589q-16 -243 -56.5 -471.5t-119 -414.5t-169 -253.5t-215.5 -67.5q-133 0 -256 51q-106 44 -184.5 118t-78.5 125q0 47 23.5 75t61.5 28q33 0 55 -28q128 -165 372 -165q99 0 191 207t116 497q-309 -244 -476 -244q-108 0 -171 86t-63 207t56.5 351.5t96 286 t128.5 55.5q48 0 74 -41.5t26 -91.5q0 -15 -72 -169q-88 -188 -88 -324q0 -70 19.5 -106.5t40.5 -36.5q48 0 116.5 29t161 100.5t119.5 108.5t43 95.5t25 257.5q5 116 11.5 146t35.5 55t78 25q66 0 93.5 -28t27.5 -132z"/>
<glyph glyph-name="z" horiz-adv-x="1025" unicode="z" d="M807 282q228 0 228 -135q0 -79 -66 -145q-38 16 -67 32q-81 42 -219 42q-81 0 -265.5 -31t-253.5 -92q-57 -51 -128 -51q-58 0 -100 29t-44 72q50 57 130 138q648 658 666 699q-40 0 -102 -8q-174 -24 -262 -24q-249 0 -249 124q0 107 126 107q11 0 24 -5q73 -28 161 -28 q156 0 374 34q58 10 95 10q59 0 96.5 -27.5t37.5 -71.5q0 -34 -73 -128q-35 -67 -544 -588q-22 -22 -27 -29q2 1 15 4q13 2 31 7l39 9q21 4 39 9q42 10 47 10q185 37 283 37h8z"/>
<glyph glyph-name="braceleft" horiz-adv-x="862" unicode="{" d="M865 -355l-1 -1q-14 -21 -22 -35q-25 -41 -93.5 -57.5t-114.5 -16.5q-88 0 -142.5 17t-114.5 82t-85 148.5t-25 213.5v196q-1 98 -13 136.5t-23 38.5q0 -1 -13 -6q-30 -12 -63 -24q-44 -15 -54 -15q-34 0 -71.5 36.5t-37.5 71.5q0 38 51 86.5t118 68.5q76 22 133.5 79 t57.5 87q0 16 -5 40t-8 56q-4 46 -10 70q-27 112 -27 199q0 122 62.5 231.5t179.5 159.5t145 50q60 0 102.5 -26t42.5 -65q0 -52 -21.5 -96t-64.5 -44q-6 0 -71 10q-6 1 -12 1q-33 0 -62.5 -30t-51 -55.5t-21.5 -164.5q0 -21 15 -100q14 -79 14 -93q0 -213 -51.5 -286.5 t-113.5 -94.5q87 -54 87 -203q0 -38 -10 -293q-1 -20 -1 -39q0 -237 128 -237q58 0 138 32q23 9 38 9q118 0 118 -74q0 -22 -27 -63z"/>
<glyph glyph-name="bar" horiz-adv-x="658" unicode="|" d="M421 239v-240l2 -503v-52q0 -224 -8.5 -285t-39 -96.5t-68.5 -35.5q-40 0 -73 31t-33 68l15 1554l16 1031q0 21 -5 100q-5 78 -5 96q0 79 37 113q47 34 76 34q101 0 101 -146z"/>
<glyph glyph-name="braceright" horiz-adv-x="821" unicode="}" d="M576 442q-20 -36 -20 -57q0 -17 33 -195q40 -160 40 -270q0 -174 -85 -290.5t-264 -116.5q-112 0 -152 38h1q-48 39 -48 83q0 41 59 71t107 30q11 0 67 -7q77 38 77 234q0 67 -26 226q-23 135 -23 197q0 72 68 120l-18 7q-14 4 -16 6q-105 77 -105 184q0 81 25 154 l87 273q19 58 19 139q0 47 -38.5 79t-86.5 32q-124 0 -173 -49q-38 -31 -61 -31q-65 0 -65 51q0 231 355 231q98 0 194 -82.5t96 -244.5q0 -84 -41 -207t-48 -137q-46 -119 -46 -239q25 -27 46 -27q13 0 70 5q58 5 76 5q71 0 111 -32t40 -84q0 -37 -40.5 -74t-87.5 -37 q-76 0 -127 15z"/>
<glyph glyph-name="asciitilde" horiz-adv-x="1589" unicode="~" d="M346 628l1 1q-79 -160 -140 -160q-48 0 -84.5 28.5t-36.5 71.5q0 69 13 119t58 88l24 25q58 65 90 83h-1q57 39 137.5 75t116.5 36q42 0 107 -18t213 -137l127 -101q30 -27 68 -27q32 0 101 16l25 5q27 5 72 106q92 172 195 172q42 0 70 -22.5t28 -59.5 q0 -81 -143.5 -249.5t-397.5 -168.5q-44 0 -92 22.5t-145 116.5q-84 82 -125 106t-88 24l-43 6q-22 0 -70.5 -45.5t-79.5 -112.5z"/>
<glyph glyph-name="uni00A0" horiz-adv-x="801" unicode=" "/>
<glyph glyph-name="exclamdown" horiz-adv-x="582" unicode="¡" d="M176 466q0 7 7 30q7 22 16 54q46 154 74.5 193.5t98.5 39.5q45 0 60.5 -29.5t15.5 -109.5q0 -72 -33 -253q-48 -264 -48 -295q-11 -221 -32.5 -347t-53 -151.5t-68.5 -25.5q-40 0 -82.5 51.5t-42.5 91.5q0 38 24 170q11 60 11 71q0 137 53 510zM499 1152l2 -42 q0 -23 -22 -54t-65 -53t-87 -22q-102 0 -102 175q0 11 34.5 54t56 54t75.5 11q76 0 96.5 -21.5t20.5 -67.5q0 -11 -3 -19q-4 -9 -6 -15z"/>
<glyph glyph-name="cent" horiz-adv-x="1038" unicode="¢" d="M523 874q-235 -95 -235 -265q0 -30 40.5 -71.5t65.5 -41.5q71 0 74 32q9 78 33 212q10 53 22 134zM721 896q-18 -69 -39 -206t-21 -147q15 3 113 53q39 20 68 20q39 0 62.5 -21.5t23.5 -42.5q0 -118 -172 -158q-81 -20 -97 -31t-25.5 -57t-11.5 -116q-5 -109 -25 -154.5 t-81 -45.5q-49 0 -84.5 40t-35.5 85q0 31 39 191q3 14 3 16q-54 0 -110 11q-16 3 -24 4q-74 15 -141.5 108.5t-67.5 164.5q0 93 24.5 150.5t42 92t106.5 93t126.5 73t106.5 24.5l20 7q21 6 24 6q25 167 25 258q0 90 117 90q43 0 72.5 -33.5t29.5 -71.5q0 -25 -4 -48 q-4 -24 -4 -26q-3 -22 -18 -80q-9 -38 -12 -58q18 -9 51 -24q158 -65 158 -142q0 -58 -22.5 -77.5t-79.5 -19.5q-40 0 -101 50q-22 18 -36 22z"/>
<glyph glyph-name="sterling" horiz-adv-x="1366" unicode="£" d="M369 147q-177 -123 -206 -123q-48 0 -86.5 26.5t-38.5 58.5q0 31 33 80h-1q41 63 78 96t55 39t49 6q70 89 132 212h-75q-80 0 -145 28t-65 68q0 112 99 112q19 0 94 -17q15 -4 22 -4q110 0 110 14q10 162 15.5 207t39.5 138.5t103 158t141.5 96t134.5 31.5 q85 0 159.5 -52t74.5 -121q0 -20 -24 -69t-104 -49q-56 0 -117 75q-12 14 -23 14q-54 0 -121 -113.5t-67 -260.5v-6q25 8 57 15q31 7 60 15q77 17 127 33q73 22 124 22q44 0 84.5 -24t40.5 -52q0 -68 -54 -96h1q-43 -23 -212 -51l1 1q-171 -33 -235 -60q2 0 -9.5 -60 t-101.5 -180q-19 -26 -34 -50q23 -4 159 -49q34 -8 148 -53q133 -53 226 -53q27 0 54.5 18.5t27.5 52.5l-1 19v5q0 36 28 68t84 32q63 0 93 -68q16 -24 16 -75q0 -104 -118 -174.5t-235 -70.5q-114 0 -392 113q-151 65 -206 77z"/>
<glyph glyph-name="currency" horiz-adv-x="1489" unicode="¤" d="M726 1043q-81 0 -150 -116.5t-69 -223.5q0 -28 8.5 -76.5t19 -79t95 -74.5t109.5 -44q136 0 202.5 87.5t66.5 283.5q0 113 -22 151t-101.5 65t-158.5 27zM1212 1033q47 -86 47 -269q0 -191 -110 -363q51 -113 84 -134h-1q19 -13 39 -24q73 -40 73 -88q4 -14 10 -28 q6 -15 6 -31q-17 -81 -89 -113q-106 6 -270 207q-40 52 -66 60q-15 -5 -38 -9q-24 -4 -56 -12q-90 -19 -121 -19q-104 0 -211 50q-47 -11 -174 -119q-92 -78 -117.5 -94.5t-52.5 -16.5q-40 0 -75 42.5t-35 80.5q0 36 47 71q12 9 22 19q7 7 111 80q94 67 94 83v15q0 5 1 10 q-71 135 -71 313q0 170 81 271q-39 127 -121 185.5t-82 102.5q0 37 45 69t84 32q50 0 90 -43t87 -124q26 -45 58 -86q85 55 129.5 69.5t153.5 14.5q103 0 252 -58q15 13 92 100q114 148 183 148q36 0 74.5 -33.5t38.5 -63.5q0 -44 -95 -147q-100 -108 -117 -148z"/>
<glyph glyph-name="yen" horiz-adv-x="1321" unicode="¥" d="M763 766q-2 -2 -4 -8t-6 -13q146 14 279 68q24 10 25 10q40 0 73.5 -47t33.5 -83q0 -32 -46.5 -53t-208.5 -48q-52 -9 -170 -35q-7 -37 -7 -88q0 -13 6 -37q39 14 116 23q22 2 67 11q64 16 99 16q47 0 82 -24t35 -60q0 -31 -24 -66.5t-184.5 -55t-181.5 -19.5 q-5 0 -5 -10q0 -100 39 -148q-39 -99 -150 -99q-47 0 -78 39.5t-34 179.5q-19 -3 -53 -11q-157 -37 -227 -37q-46 0 -78.5 36.5t-32.5 74.5q0 37 36.5 63.5t87.5 26.5q45 0 153 13t110 22.5t2.5 43.5t0.5 43q0 37 -3 44q-59 0 -214 -17q-31 -4 -42 -4q-69 0 -103 23.5 t-34 92.5q0 93 117 93q16 0 80 -10q63 -10 68 -10q74 0 105 5q0 30 -34 64q-45 50 -75 90q-31 39 -60 61q-46 43 -107 124q-63 82 -88 105q-41 37 -57.5 82.5t-16.5 68.5q0 94 127 94q29 0 52 -21.5t94 -132.5q13 -22 18 -27q86 -117 191 -228l17 -17q37 -43 76 -80 q13 11 34 35q102 117 127 134q37 24 94 87q138 154 202 189t117 35q34 0 62.5 -32.5t28.5 -60.5q0 -38 -43 -73q-410 -300 -488 -442z"/>
<glyph glyph-name="brokenbar" horiz-adv-x="658" unicode="¦" d="M430 228q0 -77 -3 -319l-10 -719q-2 -118 -18 -149t-38 -43t-53 -12q-50 0 -78.5 30t-28.5 68l25 735q4 118 4 266q0 65 -6 147q-1 11 -1 22q0 106 103 106q104 0 104 -131v-1zM229 1827l-1 72v6q0 76 27.5 103t55.5 27q52 0 90 -37.5t38 -79.5l-7 -870l-1 -165 q-1 -84 -8.5 -109.5t-30.5 -44t-57 -18.5q-41 0 -74 25.5t-33 61.5l6 583z"/>
<glyph glyph-name="section" horiz-adv-x="854" unicode="§" d="M501 900l-32 15q-9 3 -11 5q-66 0 -111.5 -40t-45.5 -98q0 -61 26.5 -94t114.5 -77q7 6 26 18q38 23 70 61t32 74q0 42 -20.5 84.5t-48.5 51.5zM601 524q10 -8 15 -10q84 -57 109.5 -109.5t25.5 -128.5q0 -141 -104.5 -220.5t-279.5 -79.5q-191 0 -273 146v-1 q-27 50 -27 88q0 124 68 124q66 0 97.5 -23.5t52.5 -95.5q20 -71 102 -71q60 0 114 35.5t54 71.5q0 85 -114 137q-130 60 -223 133t-117 120t-24 128q0 59 37 121t94 101q19 10 55 36q32 23 52 30q-85 70 -111 113v-1q-25 45 -25 111q0 8 29.5 100t132.5 121.5t175 29.5 q89 0 178 -46.5t89 -115.5q0 -47 -41 -94t-91 -47q-40 0 -65 58q-26 85 -91 85q-28 0 -68.5 -20.5t-40.5 -45.5q0 -81 20.5 -103.5t145.5 -97.5q101 -62 165 -149.5t64 -184.5q0 -58 -53.5 -131.5t-126.5 -113.5z"/>
<glyph glyph-name="dieresis" horiz-adv-x="717" unicode="¨" d="M168 1183q-43 0 -93.5 25t-50.5 55q0 149 104 149q79 0 126.5 -41t47.5 -116q0 -72 -134 -72zM527 1209q-50 0 -87.5 34.5t-37.5 80.5q0 57 30.5 78.5t101.5 38.5l17 5q13 4 27 4q28 0 54 -18q38 -26 38 -87q0 -136 -143 -136z"/>
<glyph glyph-name="copyright" horiz-adv-x="1954" unicode="©" d="M761 967h-1q156 122 274 122q74 0 133 -56t59 -128q0 -29 -10.5 -46.5t-52.5 -38t-70 -20.5q-68 0 -76 99q-10 5 -19 5q-30 0 -114.5 -73.5t-84.5 -185.5q0 -72 78 -72q106 0 232 51t165 117q19 31 73 31q57 0 57 -54q0 -64 -109 -150t-227 -120q-36 -10 -66 -19 q-105 -33 -162 -33q-102 0 -172.5 74t-70.5 165q0 85 48 181t116 151zM1067 1133l-2 1q-57 12 -65.5 24.5t-8.5 43.5q0 18 2 42q46 20 83 23q-15 27 -24 32.5t-39 5.5q-65 0 -219.5 -90t-299.5 -345.5t-145 -425.5q0 -72 90.5 -127t181.5 -55q260 0 592.5 149.5t429 280 t96.5 186.5q0 44 -134 135.5t-538 119.5zM1251 1268q28 -2 164.5 -24.5t214.5 -56.5t135.5 -74.5t83 -73.5t50.5 -99.5t25 -79.5q0 -141 -147 -303t-533.5 -317.5t-628.5 -155.5q-48 0 -174 34t-171 65.5t-90.5 121.5t-45.5 129q0 64 50.5 267t196 407t334.5 294.5t298 90.5 q72 0 162 -64.5t90 -116.5q0 -13 -14 -44z"/>
<glyph glyph-name="ordfeminine" horiz-adv-x="969" unicode="ª" d="M579 1312q-86 0 -183.5 -145.5t-97.5 -244.5q0 -17 5 -31.5t7 -14.5q35 0 114 61.5t133.5 156t54.5 165.5q0 53 -33 53zM588 877q-181 -188 -319 -188q-72 0 -122.5 54.5t-50.5 138.5q0 180 165 397t348 217q79 0 125 -86q87 -9 87 -78q0 -23 -14 -98q-29 -118 -29 -234 q0 -138 36 -157q54 -30 54 -74q0 -34 -44.5 -67.5t-86.5 -33.5q-125 0 -149 209z"/>
<glyph glyph-name="guillemotleft" horiz-adv-x="1493" unicode="«" d="M1460 1000q0 -95 -122 -139q-68 -25 -388 -206q12 -8 30 -19q21 -13 165.5 -116.5t175 -136.5t30.5 -63q0 -33 -31 -59.5t-66 -26.5q-39 0 -102 54q-80 59 -370 249q-122 65 -122 121q0 29 13 47t109 81.5t377 187.5q2 0 66 53q75 62 124 62q38 0 71 -27t39 -58z M779 1002q0 -60 -128 -137q-17 -17 -48 -36q-38 -22 -60 -39q-86 -75 -178 -97q-9 -2 -15 -7q371 -249 403 -350q0 -31 -28.5 -61.5t-61.5 -30.5q-42 0 -147 84q-29 22 -61 44q-94 65 -150 108q-60 47 -153 94q-65 33 -69 39q-42 32 -42 91q0 42 22 64t98 34q83 15 233 122 q264 187 287 187q38 0 66 -31t32 -69v-9z"/>
<glyph glyph-name="logicalnot" horiz-adv-x="1471" unicode="¬" d="M1075 272l-1 14v9q0 37 11 164q11 125 11 137q0 25 -12 29q-90 0 -152 -8q-165 -21 -426 -21l-248 5h-103q-39 0 -56 18.5t-17 81.5q0 17 18.5 41.5t36 34.5t73.5 16t169 6q44 0 99 -9q54 -8 84 -8q16 0 105 10q88 9 111 9q24 0 66 4q210 20 257 20q29 0 92 -10.5 t86 -28.5t23 -59l-6 -216q-3 -114 -8 -184t-16 -87t-41.5 -33.5t-54.5 -16.5q-30 0 -61.5 27t-39.5 55z"/>
<glyph glyph-name="uni00AD" horiz-adv-x="1309" unicode="­" d="M518 682q231 0 331 13q42 6 89 6q23 0 93 -25t84 -52.5t14 -50.5q0 -93 -116 -93q-13 0 -99 21q-17 4 -24 4l-91 -6q-21 0 -153 10q-9 1 -25 1q-60 0 -224 -9q-28 -1 -52 -1q-77 0 -107 14q-40 19 -40 70q0 54 72.5 81.5t174.5 27.5q24 0 73 -11z"/>
<glyph glyph-name="registered" horiz-adv-x="1911" unicode="®" d="M903 867q0 -53 4 -97q38 21 160 77q0 46 -75 46q-3 0 -44 -11.5t-45 -14.5zM932 631q0 -8 0.5 -33t0.5 -28q0 -44 -17 -78.5t-38 -53.5t-48 -19q-34 0 -67.5 28t-41.5 66v306q0 32 -18 49q-39 37 -39 68q0 22 24.5 49t52 34.5t131.5 17.5t138 10q101 0 177.5 -81 t76.5 -121q0 -26 -35.5 -57.5t-92.5 -50.5q20 -6 32 -11q12 -6 30 -13q146 -53 182 -76t36 -60q0 -23 -38 -50.5t-71 -27.5q-43 0 -75 12.5t-148 68.5q-109 51 -148 51h-4zM1068 1345q5 -4 11 -8q130 -87 130 -156q0 -23 -47 -98q-100 76 -119 80.5t-79 4.5q-63 0 -217 -75 t-305.5 -229t-151.5 -259q0 -137 42.5 -191.5t148 -93.5t202.5 -39q222 0 389 64.5t296.5 123t194.5 167.5t65 220q0 180 -204.5 334.5t-355.5 154.5zM741 1300q0 120 32 146.5t109.5 44t142.5 17.5q146 0 267 -38t179.5 -80.5t157 -155.5t146 -200t47.5 -137 q0 -113 -26 -194q-19 -60 -98 -164.5t-159 -163.5q-61 -45 -291 -152q-99 -47 -329 -103q-114 -28 -279 -28l-122 8q-98 6 -239 113t-171 197.5t-30 143.5q0 58 39.5 149.5t117 201t119 143t231.5 151.5q135 83 156 101z"/>
<glyph glyph-name="macron" horiz-adv-x="850" unicode="¯" d="M852 1750q-24 0 -104 9q-80 8 -105 8q-56 0 -239 -12q-183 -13 -240 -13q-17 0 -83 4t-83 4q-61 0 -61 66q0 24 17.5 41.5t43.5 17.5l154 10q37 0 101 -4t122 -4q46 0 134 9q90 8 138 8q16 0 101 -9q86 -10 104 -10q61 0 61 -74q0 -30 -12.5 -40.5t-48.5 -10.5z"/>
<glyph glyph-name="degree" horiz-adv-x="1034" unicode="°" d="M727 1095q0 64 -21 116t-46 52q-16 0 -44 -17t-38 -17q-16 0 -45 6q-29 5 -41 5q-46 0 -83.5 -59t-37.5 -118q0 -47 48 -84.5t92 -37.5q62 0 112 13.5t77 69t27 70.5v1zM497 775q-144 0 -237 83t-93 214q0 79 101 212.5t200 133.5l137 12q35 0 115 -22t134.5 -133.5 t54.5 -156.5q0 -134 -120 -238.5t-292 -104.5z"/>
<glyph glyph-name="plusminus" horiz-adv-x="1165" unicode="±" d="M1076 76q0 -34 -33 -63.5t-171 -29.5q-29 0 -129 9q-101 8 -142 8l-254 -4q-160 0 -196 5t-58 32.5t-22 49.5q0 34 28.5 67t69.5 33q13 0 73 10t81 10q88 0 326 -18q45 -4 72 -4l163 4q128 0 160 -26t32 -81v-2zM679 689q-8 -37 -8 -60q0 -67 5 -142q3 -58 3 -87 q0 -35 -41.5 -66t-79.5 -31q-34 0 -63 26.5t-29 50.5q0 21 9 75q13 81 13 164q0 35 -2 71h-1q-31 0 -133 -6q-103 -7 -119 -7h-53q-83 0 -102.5 21.5t-23.5 125.5q40 49 186 49l255 4q9 32 9 95l-6 74q6 48 6 83q0 68 16.5 90t76.5 22q73 0 96 -28t23 -86q0 -48 -24 -264 q35 0 100 -3q64 -4 88 -4q6 0 47 9q40 8 60 8q43 0 73.5 -28t30.5 -65q0 -32 -24.5 -65.5t-58.5 -33.5l-126 9h-127z"/>
<glyph glyph-name="uni00B2" horiz-adv-x="897" unicode="²" d="M498 1270q-48 -6 -131 -41q-8 -5 -18 -9q-45 -18 -47 -30q-26 -38 -63 -38q-42 0 -67 34.5t-25 82.5q0 42 18 64.5t106 48.5q53 17 99 37q37 16 94.5 29t75.5 13q64 0 111 -45t47 -98q0 -25 -19 -85.5t-42.5 -86.5t-142.5 -170l-131 -160q-20 -24 -21 -26q29 15 138 33 l221 35q78 17 98 17q50 0 82.5 -35t32.5 -86q0 -37 -34 -68t-85 -31q-18 0 -65 13q-11 3 -29 3q-105 0 -434 -101q-84 -26 -126 -26q-54 0 -88.5 28t-34.5 72q0 59 101 179t281 307q76 76 98 140z"/>
<glyph glyph-name="uni00B3" horiz-adv-x="791" unicode="³" d="M698 805q-99 -111 -206 -154q-238 -101 -376 -101q-34 0 -62.5 31.5t-28.5 62.5q0 73 42 106h-2q35 26 115 26q19 0 32 -7q33 0 91 16q8 3 28 7q66 11 163 76t97 100q0 5 -26 5q-19 0 -99 -11.5t-104 -19.5q-28 -12 -55 -12q-46 0 -76.5 25t-30.5 70q0 29 37.5 68.5 t69.5 39.5q14 0 29 -5h2q16 0 99.5 56.5t95.5 97.5q-49 0 -84.5 -11t-107.5 -53q-68 -40 -120 -40q-38 0 -66.5 36t-28.5 65q0 76 173 114q51 11 87 23q133 45 193 45q74 0 118 -35.5t44 -97.5q0 -77 -103 -179q160 -33 160 -153q0 -80 -100 -191z"/>
<glyph glyph-name="acute" horiz-adv-x="758" unicode="´" d="M423 1195h1q-23 -23 -164 -120q-52 -36 -62 -44q-8 -8 -27 -8q-39 0 -62 24.5t-23 60.5q0 59 143 168h-1q39 30 70 55q175 141 221.5 171t68.5 30q26 0 58.5 -49t32.5 -74q0 -22 -28 -55.5t-69 -53.5q-46 -20 -159 -105z"/>
<glyph glyph-name="uni00B5" horiz-adv-x="1514" unicode="µ" d="M995 303q-104 -117 -210.5 -187.5t-166.5 -70.5q-133 0 -185 73l-40 -279q-13 -93 -29 -155v2q-21 -80 -96 -80q-57 0 -88 47.5t-31 112.5q0 61 67 391q25 127 45 249q73 448 107 545t136 97q105 0 105 -141q0 -34 -41 -157q-65 -191 -65 -369q0 -15 27 -64t31 -49 q73 0 155.5 44t143.5 111.5t89 121t62 232.5q5 26 10 46q4 20 6 34q30 149 98 149q41 0 104.5 -21.5t63.5 -59.5q0 -20 -7 -47q-8 -28 -19 -72q-2 -13 -8 -34q-54 -173 -54 -246q0 -72 15.5 -180t30.5 -108q20 0 59 17q46 20 59 20q34 0 57 -26t23 -57q0 -44 -59.5 -104 t-191.5 -60q-123 0 -187 218q-9 30 -11 34q-2 5 -5 23z"/>
<glyph glyph-name="paragraph" horiz-adv-x="1366" unicode="¶" d="M1197 -51q-15 -25 -51 -42.5t-61 -17.5q-97 0 -133.5 185.5t-36.5 321.5q0 242 60 583q40 224 40 247q0 6 -29 6q-51 0 -205 -19t-273 -80t-153 -120t-34 -101q0 -59 81.5 -123.5t123.5 -64.5q2 8 4 22q11 77 11 197q0 83 27 117.5t86 34.5q82 0 82 -89q0 -74 -16 -281 q14 4 32 4q106 0 106 -91q0 -43 -19.5 -59.5t-67.5 -25.5q-36 -7 -42 -27q-15 -50 -15 -219v-74q0 -133 10 -233q9 -72 9 -93q0 -38 -36 -68t-74 -30q-52 0 -91 125t-39 266q0 115 10 190q4 45 4 73q0 32 -8 44t-75 25q-60 11 -188.5 122.5t-128.5 248.5q0 83 42.5 176.5 t98.5 136.5t200 103.5t293 83.5l47 8q126 21 215 21q84 0 174 -50.5t90 -117.5q0 -39 -53 -68q-17 -10 -17 -74q-3 -57 -34 -274q-32 -216 -35.5 -271t-3.5 -153q0 -172 17 -269t49 -185z"/>
<glyph glyph-name="periodcentered" horiz-adv-x="520" unicode="·" d="M396 555q-29 -32 -124 -32q-39 0 -102.5 40t-63.5 75q0 29 33.5 85t62.5 69.5t109 13.5q56 0 84.5 -70.5t28.5 -110.5q0 -27 -28 -70z"/>
<glyph glyph-name="cedilla" horiz-adv-x="633" unicode="¸" d="M496 -518l1 1q-96 -64 -214 -64q-92 0 -176 38.5t-84 95.5q0 33 33 70t70 37q25 0 76 -43t66 -43q62 0 87.5 10.5t47.5 45t22 58.5q0 22 -25.5 42t-48.5 20q-1 0 -12 -3q-58 -19 -80 -19q-92 0 -92 81l100 254q10 48 101 48q29 0 53.5 -30t24.5 -66q0 -13 -17 -44 q-35 -62 -36 -87q5 -4 28 4q14 5 26 5q50 0 93.5 -20t68.5 -68.5t25 -149.5q0 -36 -42.5 -88t-95.5 -85z"/>
<glyph glyph-name="uni00B9" horiz-adv-x="606" unicode="¹" d="M477 1395q-75 -392 -77 -564q-3 -129 -37 -168.5t-89 -39.5q-39 0 -73.5 24.5t-34.5 57.5q0 86 22 273.5t58 327t76.5 182t95.5 42.5q32 0 55 -27.5t23 -57.5q0 -13 -19 -50z"/>
<glyph glyph-name="ordmasculine" horiz-adv-x="891" unicode="º" d="M574 1211q-36 25 -40 40q-2 10 -5 21q-2 8 -3.5 23.5t-13.5 15.5q-38 0 -132.5 -124t-94.5 -250q0 -23 2.5 -35.5t32 -28t34.5 -15.5q22 0 110.5 44t117.5 86q25 52 25 122q0 90 -33 101zM758 1331q58 -86 58 -212q0 -57 -34.5 -162.5t-200.5 -189t-270 -83.5 q-219 0 -219 239q0 124 102 301l16 30q64 128 145.5 180.5t203.5 52.5q50 0 72.5 -17t46.5 -65q8 -15 28 -30q46 -30 52 -44z"/>
<glyph glyph-name="guillemotright" horiz-adv-x="1489" unicode="»" d="M154 329q21 29 219 150q167 102 167 130q0 10 -76 67q-259 194 -276 255q0 39 33.5 72.5t77.5 33.5q55 0 192 -137l102 -100q32 -22 49 -32q87 -54 124.5 -88.5t37.5 -68.5q0 -15 -10.5 -38.5t-16.5 -27.5q-23 -16 -52 -40t-77 -56q-117 -77 -194 -151q-33 -33 -98 -90 t-102 -57q-64 0 -90 19t-26 76q0 31 16 83zM1473 636q0 -69 -141 -134q-46 -26 -93 -62q-63 -50 -95 -70q-104 -67 -162.5 -121t-62.5 -59q-47 -59 -99 -59q-46 0 -78.5 33.5t-32.5 78.5q0 30 36.5 72t170.5 136.5t243 160.5l-110 86q-159 123 -198.5 157.5t-39.5 64.5 t34 74.5t69 44.5q55 0 144 -95q162 -172 308 -222q64 -20 85.5 -36.5t21.5 -41.5v-8z"/>
<glyph glyph-name="onequarter" horiz-adv-x="1696" unicode="¼" d="M1222 532q-79 -76 -134 -148q30 3 60 5q29 1 51 3zM1169 234q-21 0 -197 -30q-61 -11 -74 -11q-45 0 -78 27.5t-33 67.5q0 36 177.5 226t248.5 249q46 38 57 57q24 42 42 55.5t66 13.5q26 0 51.5 -23t25.5 -42q0 -63 -30 -207q-30 -141 -31 -192q12 -4 60 -4q24 1 50 1 t70 -1t78.5 -19.5t34.5 -52.5q0 -26 -32.5 -59t-69.5 -33l-94 2h-25q-36 0 -64.5 -2.5t-28.5 -9.5v-225q0 -8 7 -35q6 -28 6 -34q0 -33 -33.5 -62.5t-77.5 -29.5q-55 0 -80.5 43.5t-25.5 161.5v168zM835 753q-1 2 -32 -46t-124 -184.5t-200 -381.5q-64 -155 -108 -206.5 t-91 -51.5q-42 0 -73 28.5t-31 65.5q0 36 122.5 276.5t244.5 413.5q86 119 140 227l72 136q86 162 116 232q73 165 145 230.5t128 65.5q41 0 74 -27t33 -65q0 -28 -111 -165q-24 -29 -38 -48q-11 -15 -18 -22q-50 -61 -163 -319q-43 -99 -68 -134q-7 -9 -18 -25zM271 724 q-51 0 -86 48t-35 102q0 18 32 168q6 31 8 46q2 30 31 217q6 38 8 57q1 47 29.5 121.5t87.5 74.5q53 0 82.5 -33t29.5 -82q0 -27 -18 -136q-59 -347 -68 -426q-9 -96 -33 -126.5t-68 -30.5z"/>
<glyph glyph-name="onehalf" horiz-adv-x="1743" unicode="½" d="M1611 32q-38 0 -104 13q-64 12 -118 12q-49 0 -140.5 -10.5t-108.5 -13.5q-128 -18 -205 -18q-15 0 -72 -11q-58 -12 -75 -12q-49 0 -89 36t-40 74q0 46 113 123.5t235 120.5q27 10 87 48q50 19 130.5 98.5t80.5 100.5q0 5 -18 5q-56 0 -222 -45q-108 -30 -130 -30 q-40 0 -68.5 34.5t-28.5 67.5q0 67 208.5 113.5t295.5 46.5q76 0 129 -61t53 -91q0 -83 -76.5 -188.5t-195.5 -180.5h1q-23 -16 -118 -53l43 8q161 30 357 30q13 0 56 -5q38 -5 58 -14.5t44 -48t24 -72.5q0 -77 -106 -77zM679 583h1l-144 -169q-75 -87 -111 -172 q-98 -231 -210 -231q-39 0 -67.5 25.5t-28.5 63.5q0 61 84 145q11 14 25 43q66 143 226 330q7 8 21 29q70 105 106 135q18 16 102.5 105.5t98.5 120.5q10 23 31 50q128 213 201 281q5 9 46 23t66 14q62 0 62 -62q0 -74 -101 -204q-20 -25 -124 -187q-84 -129 -284 -340z M359 728q-16 -30 -88 -30q-51 0 -79.5 33t-28.5 84q0 21 22 81l-2 -2q6 22 12 56q28 160 36 185q8 24 21 84q39 177 68.5 224.5t86.5 47.5q37 0 63 -28.5t26 -65.5q0 -96 -54 -285q-58 -203 -58 -295q0 -24 -25 -89z"/>
<glyph glyph-name="threequarters" horiz-adv-x="1790" unicode="¾" d="M1407 707q-88 -93 -127 -153q41 12 69 15q28 2 30 5zM1636 442l-75 -15q-47 -5 -63 -121q-12 -84 -12 -199q-10 -126 -92 -126q-51 0 -85 37.5t-34 90.5q0 21 25 153t34 132q-28 0 -90 -12.5t-76 -20.5q-1 0 -29 -28q-35 -34 -81 -34t-76.5 30t-30.5 73q0 34 184.5 274.5 t252.5 240.5q2 0 9 6l27 61q29 58 116 58q25 0 55 -26.5t30 -48.5q0 -34 -55 -129q4 -20 4 -53q0 -27 -8 -91q-10 -71 -11 -96q40 20 83 20q31 0 52.5 -31.5t21.5 -66.5q0 -63 -76 -78zM619 1221q75 -10 114 -31t39 -72q0 -142 -314 -294q-2 0 -39 -26q-61 -47 -110 -47 q-43 0 -75 35t-32 66q0 50 137 106q136 56 221 122q-163 -11 -166 -11q-137 0 -137 98q0 46 171 132q81 40 124 70q-143 -7 -261 -48q-98 -34 -127 -34q-33 0 -61.5 29.5t-28.5 62.5q0 46 143 96.5t348 50.5q86 0 155.5 -26.5t69.5 -84.5q0 -93 -171 -194zM1287 1270 q-227 -291 -320 -446q-5 -11 -109 -173l-240 -378q-45 -74 -81 -183q-54 -134 -126 -134q-44 0 -74.5 33.5t-30.5 69.5q0 42 46 132q34 81 294 463q49 72 107 168l143 240q39 65 104 141q147 178 184 230q148 212 224 212q72 0 72 -84q0 -45 -193 -291z"/>
<glyph glyph-name="questiondown" horiz-adv-x="983" unicode="¿" d="M502 383q-21 75 -21 167q0 252 168 252q98 0 98 -112q0 -24 -30 -81q-21 -38 -21 -128q3 -10 8 -22q11 -24 36 -94.5t25 -97.5q0 -37 -39.5 -75t-99.5 -38q-41 0 -86 35q-104 -23 -193 -116.5t-89 -197.5q0 -132 138 -132q83 0 200 45t193 114q45 41 111 41 q34 0 60.5 -28.5t26.5 -54.5q0 -27 -41.5 -78.5t-148.5 -126t-159 -95t-150 -28.5q-29 -2 -55 -5q-27 -3 -53 -3q-128 0 -232 81.5t-104 194.5q0 254 125.5 400.5t332.5 182.5zM673 1009q-41 0 -82.5 41t-41.5 82q0 180 136 180q63 0 90 -40.5t27 -149.5q0 -18 -42.5 -65.5 t-86.5 -47.5z"/>
<glyph glyph-name="Agrave" horiz-adv-x="1588" unicode="À" d="M980 629q-24 59 -142 420q-11 33 -15 42l-284 -540q63 11 129 20q44 5 224 42q44 9 88 16zM404 323q-17 -42 -104.5 -185.5t-121.5 -160t-60 -16.5q-36 0 -86.5 39.5t-50.5 81.5q0 39 251 421q137 209 250 414q227 414 277.5 481.5t103.5 67.5q85 0 123 -44 q19 -14 19 -67q0 -39 -7 -63q183 -558 286.5 -789.5t207.5 -335.5q52 -52 63.5 -70t11.5 -48q0 -55 -40 -92.5t-95 -37.5q-76 0 -154.5 88t-148 242t-69.5 173q0 4 -5 4q-54 0 -240.5 -38t-299.5 -74q-29 -9 -51 -9q-39 0 -60 18zM804 1761l-47 31q-42 26 -159 117t-117 149 q0 27 42 61t82 34q20 0 52 -23t134 -115l219 -194q69 -61 69 -109q0 -93 -101 -93q-32 0 -174 142z"/>
<glyph glyph-name="Aacute" horiz-adv-x="1588" unicode="Á" d="M980 629q-24 59 -142 420q-11 33 -15 42l-284 -540q63 11 129 20q44 5 224 42q44 9 88 16zM404 323q-17 -42 -104.5 -185.5t-121.5 -160t-60 -16.5q-36 0 -86.5 39.5t-50.5 81.5q0 39 251 421q137 209 250 414q227 414 277.5 481.5t103.5 67.5q85 0 123 -44 q19 -14 19 -67q0 -39 -7 -63q183 -558 286.5 -789.5t207.5 -335.5q52 -52 63.5 -70t11.5 -48q0 -55 -40 -92.5t-95 -37.5q-76 0 -154.5 88t-148 242t-69.5 173q0 4 -5 4q-54 0 -240.5 -38t-299.5 -74q-29 -9 -51 -9q-39 0 -60 18zM1115 1836h1q-23 -23 -164 -120 q-52 -36 -62 -44q-8 -8 -27 -8q-39 0 -62 24.5t-23 60.5q0 59 143 168h-1q39 30 70 55q175 141 221.5 171t68.5 30q26 0 58.5 -49t32.5 -74q0 -22 -28 -55.5t-69 -53.5q-46 -20 -159 -105z"/>
<glyph glyph-name="Acircumflex" horiz-adv-x="1588" unicode="Â" d="M980 629q-24 59 -142 420q-11 33 -15 42l-284 -540q63 11 129 20q44 5 224 42q44 9 88 16zM404 323q-17 -42 -104.5 -185.5t-121.5 -160t-60 -16.5q-36 0 -86.5 39.5t-50.5 81.5q0 39 251 421q137 209 250 414q227 414 277.5 481.5t103.5 67.5q85 0 123 -44 q19 -14 19 -67q0 -39 -7 -63q183 -558 286.5 -789.5t207.5 -335.5q52 -52 63.5 -70t11.5 -48q0 -55 -40 -92.5t-95 -37.5q-76 0 -154.5 88t-148 242t-69.5 173q0 4 -5 4q-54 0 -240.5 -38t-299.5 -74q-29 -9 -51 -9q-39 0 -60 18zM912 1927q-39 -38 -66 -69q-28 -32 -53 -57 h1q-11 -15 -50 -50q-41 -38 -104 -105q-37 -39 -84 -39q-36 0 -54 16.5t-18 83.5q0 56 63 108q15 13 27 25l73 71q64 61 122 133q106 132 170 132q68 0 163 -194q26 -50 53 -82q5 -5 22 -29q37 -54 88 -106q34 -35 42.5 -53t8.5 -48q0 -32 -30 -63.5t-70 -31.5 q-66 0 -146 123q-13 22 -65 86q-73 89 -93 149z"/>
<glyph glyph-name="Atilde" horiz-adv-x="1588" unicode="Ã" d="M980 629q-24 59 -142 420q-11 33 -15 42l-284 -540q63 11 129 20q44 5 224 42q44 9 88 16zM404 323q-17 -42 -104.5 -185.5t-121.5 -160t-60 -16.5q-36 0 -86.5 39.5t-50.5 81.5q0 39 251 421q137 209 250 414q227 414 277.5 481.5t103.5 67.5q85 0 123 -44 q19 -14 19 -67q0 -39 -7 -63q183 -558 286.5 -789.5t207.5 -335.5q52 -52 63.5 -70t11.5 -48q0 -55 -40 -92.5t-95 -37.5q-76 0 -154.5 88t-148 242t-69.5 173q0 4 -5 4q-54 0 -240.5 -38t-299.5 -74q-29 -9 -51 -9q-39 0 -60 18zM984 1698q-26 12 -77 59l-22 20 q-12 9 -25 23q-55 54 -83 54q-51 0 -127 -90q-61 -85 -85 -98.5t-55 -13.5q-82 0 -82 80q0 78 116.5 196.5t204.5 118.5q74 0 113.5 -18.5t80.5 -59.5q67 -67 111 -92.5t52 -25.5q34 0 79 62q22 32 35 48q6 7 11 15q34 43 70 43q77 0 77 -85q0 -47 -82 -158t-174 -111 q-88 0 -138 33z"/>
<glyph glyph-name="Adieresis" horiz-adv-x="1588" unicode="Ä" d="M980 629q-24 59 -142 420q-11 33 -15 42l-284 -540q63 11 129 20q44 5 224 42q44 9 88 16zM404 323q-17 -42 -104.5 -185.5t-121.5 -160t-60 -16.5q-36 0 -86.5 39.5t-50.5 81.5q0 39 251 421q137 209 250 414q227 414 277.5 481.5t103.5 67.5q85 0 123 -44 q19 -14 19 -67q0 -39 -7 -63q183 -558 286.5 -789.5t207.5 -335.5q52 -52 63.5 -70t11.5 -48q0 -55 -40 -92.5t-95 -37.5q-76 0 -154.5 88t-148 242t-69.5 173q0 4 -5 4q-54 0 -240.5 -38t-299.5 -74q-29 -9 -51 -9q-39 0 -60 18zM733 1629q-43 0 -93.5 25t-50.5 55 q0 149 104 149q79 0 126.5 -41t47.5 -116q0 -72 -134 -72zM1092 1655q-50 0 -87.5 34.5t-37.5 80.5q0 57 30.5 78.5t101.5 38.5l17 5q13 4 27 4q28 0 54 -18q38 -26 38 -87q0 -136 -143 -136z"/>
<glyph glyph-name="Aring" horiz-adv-x="1588" unicode="Å" d="M967 661q-22 54 -130 390q-10 31 -14 40l-265 -501l61 7q25 0 260 48q44 9 88 16zM871 1454q113 21 113 129q0 9 -10 41q-10 31 -10 39q0 5 -23.5 12t-28.5 7h-12l-38 -4q-26 0 -44.5 -36.5t-18.5 -79.5q0 -38 26.5 -73t45.5 -35zM616 376l-21 -6q-82 -26 -112 -26 q-39 0 -60 18l-150 -264q-80 -142 -160 -142q-36 0 -86.5 39.5t-50.5 81.5q0 39 95 177q288 421 430 698q157 306 229 406q-120 71 -120 206q0 93 89 178.5t239 85.5q39 0 111 -33.5t95 -109.5t23 -88q0 -137 -162 -235q0 -20 -3 -37q-4 -17 -4 -33q18 -64 139 -407 t200 -492.5t156 -226.5q44 -44 61 -67.5t17 -56.5q0 -55 -40 -92.5t-95 -37.5q-120 0 -254.5 248.5t-134.5 293.5q0 3 -12 3q-30 0 -156 -21t-221 -48q-23 -7 -42 -12z"/>
<glyph glyph-name="AE" horiz-adv-x="2269" unicode="Æ" d="M1176 1135q-51 -72 -131 -191q-18 -26 -25 -35l-1 -1l-14 -15q-71 -80 -150 -188t-79 -141q0 -4 1 -7q31 -9 53 -9q26 0 120.5 7.5t131.5 17.5zM1283 1380h20q11 0 25 -2q35 0 254.5 23.5t402.5 57.5q30 5 42 6l16 1q15 1 28 1q152 0 152 -115q0 -38 -42 -71.5t-76 -33.5 l-96 1q-55 -1 -194 -12.5t-243.5 -28t-126.5 -27t-29.5 -23t-11.5 -54.5q-5 -50 -36 -178q-24 -98 -30 -160q60 0 183 16t171 27q136 33 223 33q158 0 158 -92q0 -98 -117 -122q-20 -8 -146 -21q-30 -3 -49 -6q-37 -6 -94 -12q-329 -38 -346.5 -57.5t-39 -163t-21.5 -191.5 q4 -32 41 -32q62 0 120 8l86 11q191 22 304 44q137 29 180 29q126 -17 126 -118q0 -47 -29 -70q-105 -48 -277 -56q-163 -9 -332 -34q-194 -32 -275 -32q-67 0 -119 8t-74.5 48t-22.5 114q0 9 5 22q28 74 54 230q-68 -12 -125 -12q-95 0 -126 1t-107 23q-81 23 -99 23 q-34 0 -119 -108q-89 -111 -180 -211.5t-133.5 -123.5t-104.5 -23q-47 0 -88 40.5t-41 78.5q0 31 37 71.5t74 40.5q10 0 59.5 44.5t103.5 114.5q57 73 152 163q225 213 415.5 467.5t258.5 493.5q75 57 120 57q39 0 81.5 -13.5t47.5 -39.5z"/>
<glyph glyph-name="Ccedilla" horiz-adv-x="1428" unicode="Ç" d="M500 -87q0 -2 -4 -11q-21 -47 -21 -52q52 -3 115.5 -10.5t105 -56.5t41.5 -158q0 -57 -103.5 -146t-264.5 -89q-45 0 -101.5 15.5t-76.5 35.5q-67 33 -67 91q0 33 30 61.5t68 28.5q44 0 121 -65q3 -1 10 -4q28 -13 38 -13q63 0 105.5 30.5t42.5 86.5q0 22 -32 39t-55 17 q-65 -20 -92 -20q-92 0 -92 82q26 64 49 111q22 46 33 78q-250 124 -250 414q0 396 343.5 775t674.5 379q134 0 214 -80t80 -187q0 -127 -21.5 -174.5t-77.5 -81t-92 -33.5q-38 0 -66 27t-28 73q0 32 17 93q16 61 16 102q0 69 -47 69q-120 0 -309 -150t-318.5 -374 t-129.5 -416q0 -116 67 -196t196 -80q79 0 193 40.5t212 110.5q100 72 135 72q76 0 76 -74q0 -93 -222.5 -227.5t-456.5 -134.5q-28 0 -56 2z"/>
<glyph glyph-name="Egrave" horiz-adv-x="1397" unicode="È" d="M1279 1240l-308 -16q-161 -9 -277 -28.5t-125.5 -30t-13.5 -61.5q-5 -50 -36 -176q-25 -96 -30 -157q64 0 184 13t170 25q144 35 223 35q158 0 158 -94q0 -69 -44 -95.5t-138 -36.5q-58 -6 -130 -18q-38 -6 -95 -12q-277 -32 -327 -50h-1q-17 -5 -25.5 -23t-30.5 -148.5 t-22 -182.5q5 -37 46 -37q48 0 252.5 26.5t253.5 36.5q137 29 179 29q127 -18 127 -118q0 -46 -30 -70q-100 -45 -277 -56q-137 -8 -332 -34q-174 -37 -328 -37q-81 0 -117 34.5t-43 107.5l-3 33q-1 8 17 61q40 123 98 547t58 472q0 1 -6 8q-7 6 -23.5 38.5t-16.5 66.5 q0 18 4 29q4 21 43 42t73 21q47 0 95 -6q83 0 540 60q152 20 159 20l14 1q16 1 31 1q149 0 149 -117q0 -24 -32.5 -59.5t-62.5 -43.5zM768 1731l-47 31q-42 26 -159 117t-117 149q0 27 42 61t82 34q20 0 52 -23t134 -115l219 -194q69 -61 69 -109q0 -93 -101 -93 q-32 0 -174 142z"/>
<glyph glyph-name="Eacute" horiz-adv-x="1397" unicode="É" d="M1279 1240l-308 -16q-161 -9 -277 -28.5t-125.5 -30t-13.5 -61.5q-5 -50 -36 -176q-25 -96 -30 -157q64 0 184 13t170 25q144 35 223 35q158 0 158 -94q0 -69 -44 -95.5t-138 -36.5q-58 -6 -130 -18q-38 -6 -95 -12q-277 -32 -327 -50h-1q-17 -5 -25.5 -23t-30.5 -148.5 t-22 -182.5q5 -37 46 -37q48 0 252.5 26.5t253.5 36.5q137 29 179 29q127 -18 127 -118q0 -46 -30 -70q-100 -45 -277 -56q-137 -8 -332 -34q-174 -37 -328 -37q-81 0 -117 34.5t-43 107.5l-3 33q-1 8 17 61q40 123 98 547t58 472q0 1 -6 8q-7 6 -23.5 38.5t-16.5 66.5 q0 18 4 29q4 21 43 42t73 21q47 0 95 -6q83 0 540 60q152 20 159 20l14 1q16 1 31 1q149 0 149 -117q0 -24 -32.5 -59.5t-62.5 -43.5zM1082 1755h1q-23 -23 -164 -120q-52 -36 -62 -44q-8 -8 -27 -8q-39 0 -62 24.5t-23 60.5q0 59 143 168h-1q39 30 70 55q175 141 221.5 171 t68.5 30q26 0 58.5 -49t32.5 -74q0 -22 -28 -55.5t-69 -53.5q-46 -20 -159 -105z"/>
<glyph glyph-name="Ecircumflex" horiz-adv-x="1397" unicode="Ê" d="M1279 1240l-308 -16q-161 -9 -277 -28.5t-125.5 -30t-13.5 -61.5q-5 -50 -36 -176q-25 -96 -30 -157q64 0 184 13t170 25q144 35 223 35q158 0 158 -94q0 -69 -44 -95.5t-138 -36.5q-58 -6 -130 -18q-38 -6 -95 -12q-277 -32 -327 -50h-1q-17 -5 -25.5 -23t-30.5 -148.5 t-22 -182.5q5 -37 46 -37q48 0 252.5 26.5t253.5 36.5q137 29 179 29q127 -18 127 -118q0 -46 -30 -70q-100 -45 -277 -56q-137 -8 -332 -34q-174 -37 -328 -37q-81 0 -117 34.5t-43 107.5l-3 33q-1 8 17 61q40 123 98 547t58 472q0 1 -6 8q-7 6 -23.5 38.5t-16.5 66.5 q0 18 4 29q4 21 43 42t73 21q47 0 95 -6q83 0 540 60q152 20 159 20l14 1q16 1 31 1q149 0 149 -117q0 -24 -32.5 -59.5t-62.5 -43.5zM921 1946q-39 -38 -66 -69q-28 -32 -53 -57h1q-11 -15 -50 -50q-41 -38 -104 -105q-37 -39 -84 -39q-36 0 -54 16.5t-18 83.5q0 56 63 108 q15 13 27 25l73 71q64 61 122 133q106 132 170 132q68 0 163 -194q26 -50 53 -82q5 -5 22 -29q37 -54 88 -106q34 -35 42.5 -53t8.5 -48q0 -32 -30 -63.5t-70 -31.5q-66 0 -146 123q-13 22 -65 86q-73 89 -93 149z"/>
<glyph glyph-name="Edieresis" horiz-adv-x="1397" unicode="Ë" d="M1279 1240l-308 -16q-161 -9 -277 -28.5t-125.5 -30t-13.5 -61.5q-5 -50 -36 -176q-25 -96 -30 -157q64 0 184 13t170 25q144 35 223 35q158 0 158 -94q0 -69 -44 -95.5t-138 -36.5q-58 -6 -130 -18q-38 -6 -95 -12q-277 -32 -327 -50h-1q-17 -5 -25.5 -23t-30.5 -148.5 t-22 -182.5q5 -37 46 -37q48 0 252.5 26.5t253.5 36.5q137 29 179 29q127 -18 127 -118q0 -46 -30 -70q-100 -45 -277 -56q-137 -8 -332 -34q-174 -37 -328 -37q-81 0 -117 34.5t-43 107.5l-3 33q-1 8 17 61q40 123 98 547t58 472q0 1 -6 8q-7 6 -23.5 38.5t-16.5 66.5 q0 18 4 29q4 21 43 42t73 21q47 0 95 -6q83 0 540 60q152 20 159 20l14 1q16 1 31 1q149 0 149 -117q0 -24 -32.5 -59.5t-62.5 -43.5zM738 1603q-43 0 -93.5 25t-50.5 55q0 149 104 149q79 0 126.5 -41t47.5 -116q0 -72 -134 -72zM1097 1629q-50 0 -87.5 34.5t-37.5 80.5 q0 57 30.5 78.5t101.5 38.5l17 5q13 4 27 4q28 0 54 -18q38 -26 38 -87q0 -136 -143 -136z"/>
<glyph glyph-name="Igrave" horiz-adv-x="645" unicode="Ì" d="M495 992q-22 -91 -28 -145q0 -29 -20 -149q-33 -214 -33 -292q0 -132 16 -260q2 -18 2 -34q0 -68 -40 -102q-50 -42 -100 -42q-71 0 -101 61.5t-30 213.5q0 94 47 448l55 391q17 86 25 160q12 109 29.5 134.5t62.5 54t68 28.5q58 0 88.5 -47t30.5 -115zM464 1802l-47 31 q-42 26 -159 117t-117 149q0 27 42 61t82 34q20 0 52 -23t134 -115l219 -194q69 -61 69 -109q0 -93 -101 -93q-32 0 -174 142z"/>
<glyph glyph-name="Iacute" horiz-adv-x="645" unicode="Í" d="M495 992q-22 -91 -28 -145q0 -29 -20 -149q-33 -214 -33 -292q0 -132 16 -260q2 -18 2 -34q0 -68 -40 -102q-50 -42 -100 -42q-71 0 -101 61.5t-30 213.5q0 94 47 448l55 391q17 86 25 160q12 109 29.5 134.5t62.5 54t68 28.5q58 0 88.5 -47t30.5 -115zM655 1828h1 q-23 -23 -164 -120q-52 -36 -62 -44q-8 -8 -27 -8q-39 0 -62 24.5t-23 60.5q0 59 143 168h-1q39 30 70 55q175 141 221.5 171t68.5 30q26 0 58.5 -49t32.5 -74q0 -22 -28 -55.5t-69 -53.5q-46 -20 -159 -105z"/>
<glyph glyph-name="Icircumflex" horiz-adv-x="645" unicode="Î" d="M494 992q-22 -91 -28 -145q0 -29 -20 -149q-33 -214 -33 -292q0 -132 16 -260q2 -18 2 -34q0 -68 -40 -102q-50 -42 -100 -42q-71 0 -101 61.5t-30 213.5q0 94 47 448l55 391q17 86 25 160q12 109 29.5 134.5t62.5 54t68 28.5q58 0 88.5 -47t30.5 -115zM521 1907 q-39 -38 -66 -69q-28 -32 -53 -57h1q-11 -15 -50 -50q-41 -38 -104 -105q-37 -39 -84 -39q-36 0 -54 16.5t-18 83.5q0 56 63 108q15 13 27 25l73 71q64 61 122 133q106 132 170 132q68 0 163 -194q26 -50 53 -82q5 -5 22 -29q37 -54 88 -106q34 -35 42.5 -53t8.5 -48 q0 -32 -30 -63.5t-70 -31.5q-66 0 -146 123q-13 22 -65 86q-73 89 -93 149z"/>
<glyph glyph-name="Idieresis" horiz-adv-x="645" unicode="Ï" d="M495 992q-22 -91 -28 -145q0 -29 -20 -149q-33 -214 -33 -292q0 -132 16 -260q2 -18 2 -34q0 -68 -40 -102q-50 -42 -100 -42q-71 0 -101 61.5t-30 213.5q0 94 47 448l55 391q17 86 25 160q12 109 29.5 134.5t62.5 54t68 28.5q58 0 88.5 -47t30.5 -115zM328 1664 q-43 0 -93.5 25t-50.5 55q0 149 104 149q79 0 126.5 -41t47.5 -116q0 -72 -134 -72zM687 1690q-50 0 -87.5 34.5t-37.5 80.5q0 57 30.5 78.5t101.5 38.5l17 5q13 4 27 4q28 0 54 -18q38 -26 38 -87q0 -136 -143 -136z"/>
<glyph glyph-name="Eth" horiz-adv-x="1623" unicode="Ð" d="M451 211q53 0 304.5 78t406 239t154.5 366q0 165 -115 262.5t-302 97.5q-157 0 -292 -22q-9 -2 -53 -6q-32 -193 -53 -349q126 16 248 16q140 0 189 -23.5t49 -88.5q-1 -51 -43 -89q-32 -29 -87 -29q-17 0 -36 3q-87 9 -203 9q-34 0 -147 -17q-26 -261 -26 -375 q0 -51 6 -72zM228 585q-19 -6 -30 -8q-64 0 -107 28.5t-43 80.5q0 21 23.5 55t44.5 50.5t142 44.5l39 261q12 66 12 90q0 18 -15 21q-107 29 -107 94q0 48 43.5 90.5t92.5 42.5l134 -4q80 0 254 14q125 11 223 11q279 0 451.5 -156.5t172.5 -414.5q0 -289 -264.5 -520 t-645.5 -318q-100 -22 -141 -38t-96 -51q-68 -47 -134 -47q-51 0 -91 49t-40 80q0 25 21 61q31 54 40 236q4 103 21 248z"/>
<glyph glyph-name="Ntilde" horiz-adv-x="1651" unicode="Ñ" d="M176 329l73 337q84 400 88 558q3 76 11.5 103.5t46 53t85.5 25.5q31 0 71 -20t67 -127q42 -173 217 -460t315 -460q38 172 83 447q32 196 60 340q23 120 28 213q5 88 52.5 118t95.5 30q41 0 70.5 -45.5t29.5 -113.5q0 -54 -29 -153q-63 -229 -123 -591t-60 -413v-34 q0 -58 -10 -86t-48.5 -52.5t-100.5 -24.5q-37 0 -53.5 7t-44.5 40.5t-59 88.5q-48 83 -71 113q-239 304 -460 709q-30 -124 -92 -580l-12 -90q-8 -47 -14 -136q-7 -107 -51.5 -154t-85.5 -47q-65 0 -92.5 33.5t-27.5 134.5q0 80 40 230zM1083 1706q-26 12 -77 59l-22 20 q-12 9 -25 23q-55 54 -83 54q-51 0 -127 -90q-61 -85 -85 -98.5t-55 -13.5q-82 0 -82 80q0 78 116.5 196.5t204.5 118.5q74 0 113.5 -18.5t80.5 -59.5q67 -67 111 -92.5t52 -25.5q34 0 79 62q22 32 35 48q6 7 11 15q34 43 70 43q77 0 77 -85q0 -47 -82 -158t-174 -111 q-88 0 -138 33z"/>
<glyph glyph-name="Ograve" horiz-adv-x="1642" unicode="Ò" d="M354 438q0 -123 73 -205t168 -82q268 0 503 257.5t235 546.5q0 102 -39 164.5t-132.5 104t-200.5 41.5q-193 0 -400 -279t-207 -548zM532 -69q-169 0 -300 162.5t-131 335.5q0 204 125 458t322.5 415t412.5 161q167 0 275.5 -40t200 -117.5t122 -160t30.5 -226.5 q0 -127 -81.5 -308.5t-237 -342.5t-316.5 -249t-422 -88zM962 1783l-47 31q-42 26 -159 117t-117 149q0 27 42 61t82 34q20 0 52 -23t134 -115l219 -194q69 -61 69 -109q0 -93 -101 -93q-32 0 -174 142z"/>
<glyph glyph-name="Oacute" horiz-adv-x="1642" unicode="Ó" d="M354 438q0 -123 73 -205t168 -82q268 0 503 257.5t235 546.5q0 102 -39 164.5t-132.5 104t-200.5 41.5q-193 0 -400 -279t-207 -548zM532 -69q-169 0 -300 162.5t-131 335.5q0 204 125 458t322.5 415t412.5 161q167 0 275.5 -40t200 -117.5t122 -160t30.5 -226.5 q0 -127 -81.5 -308.5t-237 -342.5t-316.5 -249t-422 -88zM1248 1787h1q-23 -23 -164 -120q-52 -36 -62 -44q-8 -8 -27 -8q-39 0 -62 24.5t-23 60.5q0 59 143 168h-1q39 30 70 55q175 141 221.5 171t68.5 30q26 0 58.5 -49t32.5 -74q0 -22 -28 -55.5t-69 -53.5 q-46 -20 -159 -105z"/>
<glyph glyph-name="Ocircumflex" horiz-adv-x="1642" unicode="Ô" d="M354 438q0 -123 73 -205t168 -82q268 0 503 257.5t235 546.5q0 102 -39 164.5t-132.5 104t-200.5 41.5q-193 0 -400 -279t-207 -548zM532 -69q-169 0 -300 162.5t-131 335.5q0 204 125 458t322.5 415t412.5 161q167 0 275.5 -40t200 -117.5t122 -160t30.5 -226.5 q0 -127 -81.5 -308.5t-237 -342.5t-316.5 -249t-422 -88zM1097 1925q-39 -38 -66 -69q-28 -32 -53 -57h1q-11 -15 -50 -50q-41 -38 -104 -105q-37 -39 -84 -39q-36 0 -54 16.5t-18 83.5q0 56 63 108q15 13 27 25l73 71q64 61 122 133q106 132 170 132q68 0 163 -194 q26 -50 53 -82q5 -5 22 -29q37 -54 88 -106q34 -35 42.5 -53t8.5 -48q0 -32 -30 -63.5t-70 -31.5q-66 0 -146 123q-13 22 -65 86q-73 89 -93 149z"/>
<glyph glyph-name="Otilde" horiz-adv-x="1642" unicode="Õ" d="M354 438q0 -123 73 -205t168 -82q268 0 503 257.5t235 546.5q0 102 -39 164.5t-132.5 104t-200.5 41.5q-193 0 -400 -279t-207 -548zM532 -69q-169 0 -300 162.5t-131 335.5q0 204 125 458t322.5 415t412.5 161q167 0 275.5 -40t200 -117.5t122 -160t30.5 -226.5 q0 -127 -81.5 -308.5t-237 -342.5t-316.5 -249t-422 -88zM1130 1695q-26 12 -77 59l-22 20q-12 9 -25 23q-55 54 -83 54q-51 0 -127 -90q-61 -85 -85 -98.5t-55 -13.5q-82 0 -82 80q0 78 116.5 196.5t204.5 118.5q74 0 113.5 -18.5t80.5 -59.5q67 -67 111 -92.5t52 -25.5 q34 0 79 62q22 32 35 48q6 7 11 15q34 43 70 43q77 0 77 -85q0 -47 -82 -158t-174 -111q-88 0 -138 33z"/>
<glyph glyph-name="Odieresis" horiz-adv-x="1642" unicode="Ö" d="M354 438q0 -123 73 -205t168 -82q268 0 503 257.5t235 546.5q0 102 -39 164.5t-132.5 104t-200.5 41.5q-193 0 -400 -279t-207 -548zM532 -69q-169 0 -300 162.5t-131 335.5q0 204 125 458t322.5 415t412.5 161q167 0 275.5 -40t200 -117.5t122 -160t30.5 -226.5 q0 -127 -81.5 -308.5t-237 -342.5t-316.5 -249t-422 -88zM863 1665q-43 0 -93.5 25t-50.5 55q0 149 104 149q79 0 126.5 -41t47.5 -116q0 -72 -134 -72zM1222 1691q-50 0 -87.5 34.5t-37.5 80.5q0 57 30.5 78.5t101.5 38.5l17 5q13 4 27 4q28 0 54 -18q38 -26 38 -87 q0 -136 -143 -136z"/>
<glyph glyph-name="multiply" horiz-adv-x="1165" unicode="×" d="M838 113h1q-37 40 -96 113q-14 16 -19 21q-41 41 -110 135q-15 19 -23 27q-25 -27 -61 -69l-50 -58q-6 -6 -6 -7q-8 -8 -16 -17q-35 -42 -130 -137h1q-33 -35 -71 -35q-35 0 -69.5 34.5t-34.5 61.5q0 24 19 48.5t104 94.5q9 7 50 48l153 154q-4 0 -79 77q-63 64 -141 139 q-66 62 -76.5 77.5t-10.5 41.5q0 42 32 69t76 27q26 0 67 -28.5t59 -45t101 -133.5q39 -55 90 -109q61 55 154 178q97 128 174 128q39 0 69.5 -22.5t30.5 -51.5q0 -40 -22 -73t-121 -114q-139 -113 -168 -153q1 0 10 -9q8 -9 20 -20q67 -68 203 -225q84 -64 84 -114 q0 -27 -24.5 -60t-59.5 -33q-71 0 -110 40z"/>
<glyph glyph-name="Oslash" horiz-adv-x="1642" unicode="Ø" d="M583 148q126 0 246.5 51t227 143.5t178 205t88 187.5t16.5 204q0 119 -69 199q-52 -65 -87 -116l-58 -83l-495 -718q-24 -38 -47 -73zM409 259q27 47 82 127q67 99 102 156q2 5 11 16q26 30 391 580q13 14 71 110q-58 11 -113 11q-207 0 -405 -248.5t-198 -566.5 q0 -94 59 -185zM465 -62q-76 -109 -119 -109q-42 0 -77 35.5t-35 68.5q0 15 37 79q8 15 12 24q-78 76 -130 188t-52 205q0 218 112.5 470.5t308.5 408t439 155.5q117 0 230 -28q92 119 149 119q36 0 75.5 -44.5t39.5 -74.5q0 -21 -50 -103q116 -93 150 -177t34 -236 q0 -143 -73 -329t-239.5 -347t-333.5 -236.5t-411 -75.5q-40 0 -67 7z"/>
<glyph glyph-name="Ugrave" horiz-adv-x="1583" unicode="Ù" d="M715 -67q-103 0 -249.5 67t-223.5 227.5t-77 346.5q0 95 28 251l32 185q7 47 15 92q12 69 21 133q14 110 49 165.5t108 55.5q36 0 73.5 -56.5t37.5 -86.5q0 -21 -48 -220q-12 -50 -41.5 -244.5t-29.5 -263.5q0 -255 111.5 -344t188.5 -89q254 0 351 108.5t124 354.5 q5 45 12 85q10 102 17 195q24 353 69.5 442t129.5 89q104 0 104 -135q0 -80 -39 -298q-23 -131 -31 -257q-18 -303 -83 -444t-235.5 -250t-413.5 -109zM810 1771l-47 31q-42 26 -159 117t-117 149q0 27 42 61t82 34q20 0 52 -23t134 -115l219 -194q69 -61 69 -109 q0 -93 -101 -93q-32 0 -174 142z"/>
<glyph glyph-name="Uacute" horiz-adv-x="1583" unicode="Ú" d="M715 -67q-103 0 -249.5 67t-223.5 227.5t-77 346.5q0 95 28 251l32 185q7 47 15 92q12 69 21 133q14 110 49 165.5t108 55.5q36 0 73.5 -56.5t37.5 -86.5q0 -21 -48 -220q-12 -50 -41.5 -244.5t-29.5 -263.5q0 -255 111.5 -344t188.5 -89q254 0 351 108.5t124 354.5 q5 45 12 85q10 102 17 195q24 353 69.5 442t129.5 89q104 0 104 -135q0 -80 -39 -298q-23 -131 -31 -257q-18 -303 -83 -444t-235.5 -250t-413.5 -109zM1161 1783h1q-23 -23 -164 -120q-52 -36 -62 -44q-8 -8 -27 -8q-39 0 -62 24.5t-23 60.5q0 59 143 168h-1q39 30 70 55 q175 141 221.5 171t68.5 30q26 0 58.5 -49t32.5 -74q0 -22 -28 -55.5t-69 -53.5q-46 -20 -159 -105z"/>
<glyph glyph-name="Ucircumflex" horiz-adv-x="1583" unicode="Û" d="M715 -67q-103 0 -249.5 67t-223.5 227.5t-77 346.5q0 95 28 251l32 185q7 47 15 92q12 69 21 133q14 110 49 165.5t108 55.5q36 0 73.5 -56.5t37.5 -86.5q0 -21 -48 -220q-12 -50 -41.5 -244.5t-29.5 -263.5q0 -255 111.5 -344t188.5 -89q254 0 351 108.5t124 354.5 q5 45 12 85q10 102 17 195q24 353 69.5 442t129.5 89q104 0 104 -135q0 -80 -39 -298q-23 -131 -31 -257q-18 -303 -83 -444t-235.5 -250t-413.5 -109zM998 1960q-39 -38 -66 -69q-28 -32 -53 -57h1q-11 -15 -50 -50q-41 -38 -104 -105q-37 -39 -84 -39q-36 0 -54 16.5 t-18 83.5q0 56 63 108q15 13 27 25l73 71q64 61 122 133q106 132 170 132q68 0 163 -194q26 -50 53 -82q5 -5 22 -29q37 -54 88 -106q34 -35 42.5 -53t8.5 -48q0 -32 -30 -63.5t-70 -31.5q-66 0 -146 123q-13 22 -65 86q-73 89 -93 149z"/>
<glyph glyph-name="Udieresis" horiz-adv-x="1583" unicode="Ü" d="M715 -67q-103 0 -249.5 67t-223.5 227.5t-77 346.5q0 95 28 251l32 185q7 47 15 92q12 69 21 133q14 110 49 165.5t108 55.5q36 0 73.5 -56.5t37.5 -86.5q0 -21 -48 -220q-12 -50 -41.5 -244.5t-29.5 -263.5q0 -255 111.5 -344t188.5 -89q254 0 351 108.5t124 354.5 q5 45 12 85q10 102 17 195q24 353 69.5 442t129.5 89q104 0 104 -135q0 -80 -39 -298q-23 -131 -31 -257q-18 -303 -83 -444t-235.5 -250t-413.5 -109zM779 1667q-43 0 -93.5 25t-50.5 55q0 149 104 149q79 0 126.5 -41t47.5 -116q0 -72 -134 -72zM1138 1693 q-50 0 -87.5 34.5t-37.5 80.5q0 57 30.5 78.5t101.5 38.5l17 5q13 4 27 4q28 0 54 -18q38 -26 38 -87q0 -136 -143 -136z"/>
<glyph glyph-name="Yacute" horiz-adv-x="1370" unicode="Ý" d="M1152 976q-261 -271 -278 -311q-31 -84 -71 -553q-7 -104 -22.5 -121t-58 -32.5t-64.5 -15.5q-111 0 -111 150q0 67 30 253q30 185 30 259q0 43 -12 80q-83 89 -202 250q-138 184 -197 228q-118 85 -149.5 130.5t-31.5 82.5q0 23 43.5 59t79.5 36q151 0 471 -428 q106 -144 146 -180q38 41 78 90q39 49 80 90q242 249 326 365q80 112 177 112q44 0 72 -36t28 -75q0 -59 -364 -433zM1007 1837h1q-23 -23 -164 -120q-52 -36 -62 -44q-8 -8 -27 -8q-39 0 -62 24.5t-23 60.5q0 59 143 168h-1q39 30 70 55q175 141 221.5 171t68.5 30 q26 0 58.5 -49t32.5 -74q0 -22 -28 -55.5t-69 -53.5q-46 -20 -159 -105z"/>
<glyph glyph-name="Thorn" horiz-adv-x="1616" unicode="Þ" d="M1371 876q26 24 26 36q0 99 -280 170.5t-511 71.5q-46 0 -53 -29q-15 -61 -15 -86q0 -103 -45 -283q-40 -123 -40 -195q0 -34 15 -34q79 0 238.5 43t237 57.5t207.5 73t180 126.5q14 20 44 51zM1330 578h1q-268 -151 -479 -169q-28 -4 -145 -36l-134 -38q-11 -4 -28 -8 q-78 -18 -100 -36q-16 -64 -16 -94q0 -6 8 -73q9 -86 9 -89q0 -74 -25 -96.5t-89 -22.5q-66 0 -112 57t-46 142q0 34 11 123l19 129q16 183 34 258q30 128 35.5 174.5t13.5 168.5q10 137 44 314q21 110 27 183q4 100 32 126.5t100 26.5q57 0 96 -23t39 -61q0 -17 -14 -86 q-15 -70 -15 -86q0 -9 8 -9l215 4q78 0 236 -42q43 -11 84 -19q175 -37 276 -81.5t159.5 -120.5t58.5 -158q0 -189 -303 -358z"/>
<glyph glyph-name="germandbls" horiz-adv-x="1264" unicode="ß" d="M578 350q19 -43 37 -74q17 -32 26 -56q17 -42 99 -42q157 0 223 242q-1 47 -52 98.5t-126 93t-85.5 45.5t-85.5 12q-76 7 -90 14q-30 8 -54.5 58.5t-24.5 78.5q0 47 45 83t106 43q49 6 105 42q133 101 133 211q0 73 -69.5 119t-151.5 46q-62 0 -109 -91t-83.5 -285 t-59.5 -496l-36 -460q-12 -140 -27 -192q-21 -118 -108 -231t-167 -113q-72 0 -102 18.5t-30 74.5q0 34 11.5 49.5t65.5 55.5h-1q74 43 102.5 149t36.5 283q6 154 27 406l8 114q35 458 91.5 585.5t162.5 221t266 93.5q93 0 198 -45.5t158 -147.5t53 -185q0 -246 -351 -337 q-16 -4 -21 -6q175 -39 209.5 -50t96 -44t93 -72.5t62.5 -113.5t31 -125q0 -178 -147.5 -301t-350.5 -123q-109 0 -195.5 52t-97.5 138l-1 20v15q0 61 31.5 91.5t148.5 37.5z"/>
<glyph glyph-name="agrave" horiz-adv-x="1198" unicode="à" d="M738 890q-101 0 -262.5 -223.5t-161.5 -379.5q0 -82 34 -82q118 0 290.5 209.5t172.5 366.5q0 50 -22.5 79.5t-50.5 29.5zM798 335q-263 -347 -508 -347q-90 0 -155 71t-65 181q0 265 236 564.5t476 299.5q122 0 160 -123q115 0 115 -88q0 -42 -22 -152 q-40 -206 -40 -329q0 -128 17.5 -180t25.5 -68t48 -34q40 -19 40 -53q0 -51 -51.5 -85t-107.5 -34q-171 0 -171 311q0 31 2 66zM629 1319l-47 31q-42 26 -159 117t-117 149q0 27 42 61t82 34q20 0 52 -23t134 -115l219 -194q69 -61 69 -109q0 -93 -101 -93q-32 0 -174 142z "/>
<glyph glyph-name="aacute" horiz-adv-x="1198" unicode="á" d="M738 890q-101 0 -262.5 -223.5t-161.5 -379.5q0 -82 34 -82q118 0 290.5 209.5t172.5 366.5q0 50 -22.5 79.5t-50.5 29.5zM798 335q-263 -347 -508 -347q-90 0 -155 71t-65 181q0 265 236 564.5t476 299.5q122 0 160 -123q115 0 115 -88q0 -42 -22 -152 q-40 -206 -40 -329q0 -128 17.5 -180t25.5 -68t48 -34q40 -19 40 -53q0 -51 -51.5 -85t-107.5 -34q-171 0 -171 311q0 31 2 66zM870 1342h1q-23 -23 -164 -120q-52 -36 -62 -44q-8 -8 -27 -8q-39 0 -62 24.5t-23 60.5q0 59 143 168h-1q39 30 70 55q175 141 221.5 171 t68.5 30q26 0 58.5 -49t32.5 -74q0 -22 -28 -55.5t-69 -53.5q-46 -20 -159 -105z"/>
<glyph glyph-name="acircumflex" horiz-adv-x="1198" unicode="â" d="M738 890q-101 0 -262.5 -223.5t-161.5 -379.5q0 -82 34 -82q118 0 290.5 209.5t172.5 366.5q0 50 -22.5 79.5t-50.5 29.5zM798 335q-263 -347 -508 -347q-90 0 -155 71t-65 181q0 265 236 564.5t476 299.5q122 0 160 -123q115 0 115 -88q0 -42 -22 -152 q-40 -206 -40 -329q0 -128 17.5 -180t25.5 -68t48 -34q40 -19 40 -53q0 -51 -51.5 -85t-107.5 -34q-171 0 -171 311q0 31 2 66zM810 1494q-39 -38 -66 -69q-28 -32 -53 -57h1q-11 -15 -50 -50q-41 -38 -104 -105q-37 -39 -84 -39q-36 0 -54 16.5t-18 83.5q0 56 63 108 q15 13 27 25l73 71q64 61 122 133q106 132 170 132q68 0 163 -194q26 -50 53 -82q5 -5 22 -29q37 -54 88 -106q34 -35 42.5 -53t8.5 -48q0 -32 -30 -63.5t-70 -31.5q-66 0 -146 123q-13 22 -65 86q-73 89 -93 149z"/>
<glyph glyph-name="atilde" horiz-adv-x="1198" unicode="ã" d="M738 890q-101 0 -262.5 -223.5t-161.5 -379.5q0 -82 34 -82q118 0 290.5 209.5t172.5 366.5q0 50 -22.5 79.5t-50.5 29.5zM798 335q-263 -347 -508 -347q-90 0 -155 71t-65 181q0 265 236 564.5t476 299.5q122 0 160 -123q115 0 115 -88q0 -42 -22 -152 q-40 -206 -40 -329q0 -128 17.5 -180t25.5 -68t48 -34q40 -19 40 -53q0 -51 -51.5 -85t-107.5 -34q-171 0 -171 311q0 31 2 66zM867 1197q-26 12 -77 59l-22 20q-12 9 -25 23q-55 54 -83 54q-51 0 -127 -90q-61 -85 -85 -98.5t-55 -13.5q-82 0 -82 80q0 78 116.5 196.5 t204.5 118.5q74 0 113.5 -18.5t80.5 -59.5q67 -67 111 -92.5t52 -25.5q34 0 79 62q22 32 35 48q6 7 11 15q34 43 70 43q77 0 77 -85q0 -47 -82 -158t-174 -111q-88 0 -138 33z"/>
<glyph glyph-name="adieresis" horiz-adv-x="1198" unicode="ä" d="M738 890q-101 0 -262.5 -223.5t-161.5 -379.5q0 -82 34 -82q118 0 290.5 209.5t172.5 366.5q0 50 -22.5 79.5t-50.5 29.5zM798 335q-263 -347 -508 -347q-90 0 -155 71t-65 181q0 265 236 564.5t476 299.5q122 0 160 -123q115 0 115 -88q0 -42 -22 -152 q-40 -206 -40 -329q0 -128 17.5 -180t25.5 -68t48 -34q40 -19 40 -53q0 -51 -51.5 -85t-107.5 -34q-171 0 -171 311q0 31 2 66zM589 1208q-43 0 -93.5 25t-50.5 55q0 149 104 149q79 0 126.5 -41t47.5 -116q0 -72 -134 -72zM948 1234q-50 0 -87.5 34.5t-37.5 80.5 q0 57 30.5 78.5t101.5 38.5l17 5q13 4 27 4q28 0 54 -18q38 -26 38 -87q0 -136 -143 -136z"/>
<glyph glyph-name="aring" horiz-adv-x="1198" unicode="å" d="M738 890q-101 0 -262.5 -223.5t-161.5 -379.5q0 -82 34 -82q118 0 290.5 209.5t172.5 366.5q0 50 -22.5 79.5t-50.5 29.5zM798 335q-263 -347 -508 -347q-90 0 -155 71t-65 181q0 265 236 564.5t476 299.5q122 0 160 -123q115 0 115 -88q0 -42 -22 -152 q-40 -206 -40 -329q0 -128 17.5 -180t25.5 -68t48 -34q40 -19 40 -53q0 -51 -51.5 -85t-107.5 -34q-171 0 -171 311q0 31 2 66zM744 1524q-19 -2 -35 -39t-16 -75q0 -34 25.5 -70.5t46.5 -36.5q8 0 60.5 24t52.5 105q0 5 -3 17q-4 12 -7 26l-7 24q-4 11 -4 14q0 8 -28.5 13 t-40.5 5q-24 0 -44 -7zM1039 1527q21 -48 21 -86q0 -100 -98.5 -184t-205.5 -84q-109 0 -180.5 71.5t-71.5 172.5q0 90 89.5 175t238.5 85q37 0 110.5 -34.5t96.5 -115.5z"/>
<glyph glyph-name="ae" horiz-adv-x="1670" unicode="æ" d="M683 793q0 18 10 37q11 22 11 44q0 16 -34 16q-104 0 -178.5 -100t-150 -229t-75.5 -361q0 -30 39 -30q25 0 50 19t95 124t158 289zM926 493q16 11 78 48q101 59 199.5 158.5t98.5 152.5q0 28 -18 50t-33 22q-83 0 -181.5 -126.5t-143.5 -304.5zM671 303q-24 -51 -54 -96 h1q-177 -277 -366 -277q-91 0 -141.5 76t-50.5 185q0 152 46 292q51 154 125 272v-1q71 115 177 206h-1q132 112 324 112q105 0 135 -54t30 -111q184 220 404 220q88 0 145 -74.5t57 -158.5q0 -128 -93.5 -257t-465.5 -331q-30 -17 -30 -42q0 -35 41.5 -66t114.5 -31 q171 0 389 228q38 40 74 40q70 0 70 -78q0 -109 -184 -256t-386 -147q-168 0 -264.5 93t-96.5 256z"/>
<glyph glyph-name="ccedilla" horiz-adv-x="1034" unicode="ç" d="M390 -60q0 -4 -10 -30q-10 -27 -10 -33q11 8 69 8q71 0 113.5 -21.5t63 -63t20.5 -145.5q0 -37 -40 -88.5t-93 -84.5v1q-95 -64 -229 -64q-79 0 -162 43t-83 100q0 30 26.5 57.5t65.5 27.5q19 0 62 -19.5t65 -34.5q16 -13 39 -13q148 0 148 101q0 23 -27 43.5t-50 20.5 q-4 0 -15 -3q-61 -19 -78 -19q-92 0 -92 81q11 26 61 179q-163 82 -163 305q0 252 205 543.5t401 291.5q94 0 161.5 -93t67.5 -198q0 -69 -33.5 -118t-79.5 -49q-40 0 -72 32t-57 141q-14 60 -24 60q-76 0 -205 -225t-129 -383q0 -135 147 -135q130 0 310 127q76 53 121 53 q26 0 48.5 -18.5t22.5 -47.5q0 -89 -192.5 -208t-372.5 -121z"/>
<glyph glyph-name="egrave" horiz-adv-x="1061" unicode="è" d="M337 521q158 32 278.5 135t120.5 187q0 33 -18.5 55.5t-47.5 22.5q-87 0 -193 -128t-140 -272zM1008 344q0 -104 -175 -248.5t-395 -144.5q-169 0 -266 106.5t-97 296.5q0 280 198 525t423 245q112 0 180 -71t68 -169q0 -174 -167 -331.5t-428 -217.5q-30 -7 -30 -36 q0 -48 42.5 -91.5t113.5 -43.5q201 0 399 207q38 40 74 40q60 0 60 -67zM464 1348l-47 31q-42 26 -159 117t-117 149q0 27 42 61t82 34q20 0 52 -23t134 -115l219 -194q69 -61 69 -109q0 -93 -101 -93q-32 0 -174 142z"/>
<glyph glyph-name="eacute" horiz-adv-x="1061" unicode="é" d="M337 521q158 32 278.5 135t120.5 187q0 33 -18.5 55.5t-47.5 22.5q-87 0 -193 -128t-140 -272zM1008 344q0 -104 -175 -248.5t-395 -144.5q-169 0 -266 106.5t-97 296.5q0 280 198 525t423 245q112 0 180 -71t68 -169q0 -174 -167 -331.5t-428 -217.5q-30 -7 -30 -36 q0 -48 42.5 -91.5t113.5 -43.5q201 0 399 207q38 40 74 40q60 0 60 -67zM713 1365h1q-23 -23 -164 -120q-52 -36 -62 -44q-8 -8 -27 -8q-39 0 -62 24.5t-23 60.5q0 59 143 168h-1q39 30 70 55q175 141 221.5 171t68.5 30q26 0 58.5 -49t32.5 -74q0 -22 -28 -55.5t-69 -53.5 q-46 -20 -159 -105z"/>
<glyph glyph-name="ecircumflex" horiz-adv-x="1061" unicode="ê" d="M337 521q158 32 278.5 135t120.5 187q0 33 -18.5 55.5t-47.5 22.5q-87 0 -193 -128t-140 -272zM1008 344q0 -104 -175 -248.5t-395 -144.5q-169 0 -266 106.5t-97 296.5q0 280 198 525t423 245q112 0 180 -71t68 -169q0 -174 -167 -331.5t-428 -217.5q-30 -7 -30 -36 q0 -48 42.5 -91.5t113.5 -43.5q201 0 399 207q38 40 74 40q60 0 60 -67zM670 1476q-39 -38 -66 -69q-28 -32 -53 -57h1q-11 -15 -50 -50q-41 -38 -104 -105q-37 -39 -84 -39q-36 0 -54 16.5t-18 83.5q0 56 63 108q15 13 27 25l73 71q64 61 122 133q106 132 170 132 q68 0 163 -194q26 -50 53 -82q5 -5 22 -29q37 -54 88 -106q34 -35 42.5 -53t8.5 -48q0 -32 -30 -63.5t-70 -31.5q-66 0 -146 123q-13 22 -65 86q-73 89 -93 149z"/>
<glyph glyph-name="edieresis" horiz-adv-x="1061" unicode="ë" d="M337 521q158 32 278.5 135t120.5 187q0 33 -18.5 55.5t-47.5 22.5q-87 0 -193 -128t-140 -272zM1008 344q0 -104 -175 -248.5t-395 -144.5q-169 0 -266 106.5t-97 296.5q0 280 198 525t423 245q112 0 180 -71t68 -169q0 -174 -167 -331.5t-428 -217.5q-30 -7 -30 -36 q0 -48 42.5 -91.5t113.5 -43.5q201 0 399 207q38 40 74 40q60 0 60 -67zM472 1211q-43 0 -93.5 25t-50.5 55q0 149 104 149q79 0 126.5 -41t47.5 -116q0 -72 -134 -72zM831 1237q-50 0 -87.5 34.5t-37.5 80.5q0 57 30.5 78.5t101.5 38.5l17 5q13 4 27 4q28 0 54 -18 q38 -26 38 -87q0 -136 -143 -136z"/>
<glyph glyph-name="igrave" horiz-adv-x="588" unicode="ì" d="M166 562q10 53 18 101q32 182 32 208q0 74 32.5 124t90.5 50q68 0 106 -32t38 -72t-37 -165l-6 -22q-55 -193 -66 -315t-11 -197q0 -61 21 -163q3 -18 3 -30q0 -23 -43.5 -62t-93.5 -39q-132 0 -132 200q0 170 48 414zM262 1316l-47 31q-42 26 -159 117t-117 149 q0 27 42 61t82 34q20 0 52 -23t134 -115l219 -194q69 -61 69 -109q0 -93 -101 -93q-32 0 -174 142z"/>
<glyph glyph-name="iacute" horiz-adv-x="588" unicode="í" d="M166 562q10 53 18 101q32 182 32 208q0 74 32.5 124t90.5 50q68 0 106 -32t38 -72t-37 -165l-6 -22q-55 -193 -66 -315t-11 -197q0 -61 21 -163q3 -18 3 -30q0 -23 -43.5 -62t-93.5 -39q-132 0 -132 200q0 170 48 414zM631 1347h1q-23 -23 -164 -120q-52 -36 -62 -44 q-8 -8 -27 -8q-39 0 -62 24.5t-23 60.5q0 59 143 168h-1q39 30 70 55q175 141 221.5 171t68.5 30q26 0 58.5 -49t32.5 -74q0 -22 -28 -55.5t-69 -53.5q-46 -20 -159 -105z"/>
<glyph glyph-name="icircumflex" horiz-adv-x="588" unicode="î" d="M166 562q10 53 18 101q32 182 32 208q0 74 32.5 124t90.5 50q68 0 106 -32t38 -72t-37 -165l-6 -22q-55 -193 -66 -315t-11 -197q0 -61 21 -163q3 -18 3 -30q0 -23 -43.5 -62t-93.5 -39q-132 0 -132 200q0 170 48 414zM413 1426q-39 -38 -66 -69q-28 -32 -53 -57h1 q-11 -15 -50 -50q-41 -38 -104 -105q-37 -39 -84 -39q-36 0 -54 16.5t-18 83.5q0 56 63 108q15 13 27 25l73 71q64 61 122 133q106 132 170 132q68 0 163 -194q26 -50 53 -82q5 -5 22 -29q37 -54 88 -106q34 -35 42.5 -53t8.5 -48q0 -32 -30 -63.5t-70 -31.5q-66 0 -146 123 q-13 22 -65 86q-73 89 -93 149z"/>
<glyph glyph-name="idieresis" horiz-adv-x="588" unicode="ï" d="M166 562q10 53 18 101q32 182 32 208q0 74 32.5 124t90.5 50q68 0 106 -32t38 -72t-37 -165l-6 -22q-55 -193 -66 -315t-11 -197q0 -61 21 -163q3 -18 3 -30q0 -23 -43.5 -62t-93.5 -39q-132 0 -132 200q0 170 48 414zM223 1209q-43 0 -93.5 25t-50.5 55q0 149 104 149 q79 0 126.5 -41t47.5 -116q0 -72 -134 -72zM582 1235q-50 0 -87.5 34.5t-37.5 80.5q0 57 30.5 78.5t101.5 38.5l17 5q13 4 27 4q28 0 54 -18q38 -26 38 -87q0 -136 -143 -136z"/>
<glyph glyph-name="eth" horiz-adv-x="1026" unicode="ð" d="M749 702q-4 9 -21 88t-27 79q-30 0 -146 -47.5t-160 -86.5t-80.5 -109.5t-36.5 -112.5q0 -179 60.5 -226t69.5 -47q38 0 193.5 116t155.5 237q0 57 -8 109zM979 609q0 -104 -21 -153q-29 -79 -82 -145.5t-185.5 -152t-188.5 -111t-144 -25.5q-102 0 -164 62t-104.5 138.5 t-42.5 209.5v73q0 135 154.5 310.5t422.5 221.5q-24 66 -100 132q-24 -9 -59 -33q-169 -114 -225 -114q-33 0 -57 31.5t-24 66.5q0 37 115 94q77 40 95 64q-30 15 -60 29q-109 49 -109 74q0 41 50.5 90t100.5 49q69 0 220 -136q18 0 106 70q5 3 9 7q27 27 70 53.5t84 26.5 q80 0 80 -91q0 -60 -167 -144q-17 -8 -26 -16q-9 -9 -14 -11q-6 -2 -6 -5q171 -203 221.5 -361t50.5 -304z"/>
<glyph glyph-name="ntilde" horiz-adv-x="1354" unicode="ñ" d="M953 146q-48 90 -70 336q-22 256 -98 256q-72 0 -249 -266.5t-218 -393.5q-9 -38 -33.5 -63t-48.5 -25q-152 0 -152 139q0 47 30 214q39 216 39 528q0 47 41 100.5t87 53.5q58 0 89 -29t31 -154q0 -95 -57 -368q217 508 484 508q232 0 272 -365q40 -372 92 -372 q23 0 53 10q36 12 57 12q48 0 48 -56q0 -51 -66 -108.5t-166 -57.5q-116 0 -166 101h1zM831 1226q-26 12 -77 59l-22 20q-12 9 -25 23q-55 54 -83 54q-51 0 -127 -90q-61 -85 -85 -98.5t-55 -13.5q-82 0 -82 80q0 78 116.5 196.5t204.5 118.5q74 0 113.5 -18.5t80.5 -59.5 q67 -67 111 -92.5t52 -25.5q34 0 79 62q22 32 35 48q6 7 11 15q34 43 70 43q77 0 77 -85q0 -47 -82 -158t-174 -111q-88 0 -138 33z"/>
<glyph glyph-name="ograve" horiz-adv-x="1154" unicode="ò" d="M538 823q-70 -62 -137 -198t-67 -273q0 -83 30.5 -137t80.5 -54q124 0 258 147t134 330q0 103 -43.5 169.5t-121.5 66.5q-74 0 -133 -51h-1zM1058 507q-67 -234 -254.5 -394.5t-374.5 -160.5q-148 0 -244 108.5t-96 266.5q0 258 176 508t427 250q171 0 277 -126.5 t106 -301.5q0 -76 -17 -149v-1zM567 1316l-47 31q-42 26 -159 117t-117 149q0 27 42 61t82 34q20 0 52 -23t134 -115l219 -194q69 -61 69 -109q0 -93 -101 -93q-32 0 -174 142z"/>
<glyph glyph-name="oacute" horiz-adv-x="1154" unicode="ó" d="M538 823q-70 -62 -137 -198t-67 -273q0 -83 30.5 -137t80.5 -54q124 0 258 147t134 330q0 103 -43.5 169.5t-121.5 66.5q-74 0 -133 -51h-1zM1058 507q-67 -234 -254.5 -394.5t-374.5 -160.5q-148 0 -244 108.5t-96 266.5q0 258 176 508t427 250q171 0 277 -126.5 t106 -301.5q0 -76 -17 -149v-1zM878 1343h1q-23 -23 -164 -120q-52 -36 -62 -44q-8 -8 -27 -8q-39 0 -62 24.5t-23 60.5q0 59 143 168h-1q39 30 70 55q175 141 221.5 171t68.5 30q26 0 58.5 -49t32.5 -74q0 -22 -28 -55.5t-69 -53.5q-46 -20 -159 -105z"/>
<glyph glyph-name="ocircumflex" horiz-adv-x="1154" unicode="ô" d="M538 823q-70 -62 -137 -198t-67 -273q0 -83 30.5 -137t80.5 -54q124 0 258 147t134 330q0 103 -43.5 169.5t-121.5 66.5q-74 0 -133 -51h-1zM1058 507q-67 -234 -254.5 -394.5t-374.5 -160.5q-148 0 -244 108.5t-96 266.5q0 258 176 508t427 250q171 0 277 -126.5 t106 -301.5q0 -76 -17 -149v-1zM744 1482q-39 -38 -66 -69q-28 -32 -53 -57h1q-11 -15 -50 -50q-41 -38 -104 -105q-37 -39 -84 -39q-36 0 -54 16.5t-18 83.5q0 56 63 108q15 13 27 25l73 71q64 61 122 133q106 132 170 132q68 0 163 -194q26 -50 53 -82q5 -5 22 -29 q37 -54 88 -106q34 -35 42.5 -53t8.5 -48q0 -32 -30 -63.5t-70 -31.5q-66 0 -146 123q-13 22 -65 86q-73 89 -93 149z"/>
<glyph glyph-name="otilde" horiz-adv-x="1154" unicode="õ" d="M538 823q-70 -62 -137 -198t-67 -273q0 -83 30.5 -137t80.5 -54q124 0 258 147t134 330q0 103 -43.5 169.5t-121.5 66.5q-74 0 -133 -51h-1zM1058 507q-67 -234 -254.5 -394.5t-374.5 -160.5q-148 0 -244 108.5t-96 266.5q0 258 176 508t427 250q171 0 277 -126.5 t106 -301.5q0 -76 -17 -149v-1zM832 1215q-26 12 -77 59l-22 20q-12 9 -25 23q-55 54 -83 54q-51 0 -127 -90q-61 -85 -85 -98.5t-55 -13.5q-82 0 -82 80q0 78 116.5 196.5t204.5 118.5q74 0 113.5 -18.5t80.5 -59.5q67 -67 111 -92.5t52 -25.5q34 0 79 62q22 32 35 48 q6 7 11 15q34 43 70 43q77 0 77 -85q0 -47 -82 -158t-174 -111q-88 0 -138 33z"/>
<glyph glyph-name="odieresis" horiz-adv-x="1154" unicode="ö" d="M538 823q-70 -62 -137 -198t-67 -273q0 -83 30.5 -137t80.5 -54q124 0 258 147t134 330q0 103 -43.5 169.5t-121.5 66.5q-74 0 -133 -51h-1zM1058 507q-67 -234 -254.5 -394.5t-374.5 -160.5q-148 0 -244 108.5t-96 266.5q0 258 176 508t427 250q171 0 277 -126.5 t106 -301.5q0 -76 -17 -149v-1zM532 1207q-43 0 -93.5 25t-50.5 55q0 149 104 149q79 0 126.5 -41t47.5 -116q0 -72 -134 -72zM891 1233q-50 0 -87.5 34.5t-37.5 80.5q0 57 30.5 78.5t101.5 38.5l17 5q13 4 27 4q28 0 54 -18q38 -26 38 -87q0 -136 -143 -136z"/>
<glyph glyph-name="divide" horiz-adv-x="1180" unicode="÷" d="M599 32q-51 0 -105 34t-54 67q0 43 54.5 83t109.5 40q114 0 114 -76q0 -55 -34 -101.5t-85 -46.5zM302 431q-188 0 -188 105q0 67 37.5 87t154.5 20l163 -4q33 0 191 11t207 11q19 0 79 -10t75 -10q42 0 70 -33.5t28 -65.5q0 -15 -20.5 -46t-51 -37t-146.5 -6l-328 -5 q-39 0 -141 -8q-102 -9 -130 -9zM638 798q-84 0 -130.5 44.5t-46.5 105.5q0 25 38 51t76 26q9 0 26 -5q15 -5 39 -8q106 -2 106 -59q0 -50 -24.5 -102.5t-83.5 -52.5z"/>
<glyph glyph-name="oslash" horiz-adv-x="1154" unicode="ø" d="M849 738q-199 -282 -219 -322q-57 -109 -146 -228l-9 -24q195 34 294.5 178.5t99.5 273.5q0 9 -9 62zM517 842q-61 -50 -138 -197t-77 -239q0 -19 3 -35l16 -92q89 129 316 490l76 120q-136 0 -195 -47h-1zM992 934q104 -167 104 -298q0 -192 -115.5 -366.5t-269.5 -246 t-282 -71.5q-38 0 -74 9q-75 -129 -126 -129q-42 0 -73 28t-31 61t55 138q-91 122 -91 268q0 308 165.5 533t437.5 225q60 0 133 -26l26 31q55 70 105 70q36 0 67 -42.5t31 -76.5q0 -13 -16 -37q-17 -25 -46 -70z"/>
<glyph glyph-name="ugrave" horiz-adv-x="1245" unicode="ù" d="M817 366q-96 -175 -222.5 -278t-256.5 -103q-77 0 -155.5 81t-78.5 249q0 119 60 359q52 198 52 301q40 84 125 84q58 0 92.5 -38.5t34.5 -77.5q0 -71 -50 -202q-29 -78 -62.5 -220.5t-33.5 -182.5q0 -133 55 -133q87 0 235 167t193 342q45 171 80 224t99 53 q104 0 104 -116q0 -17 -17 -68q-59 -177 -59 -399q0 -260 88 -311q29 -17 29 -42q0 -36 -51 -68t-97 -32q-79 0 -121.5 111.5t-42.5 299.5zM518 1313l-47 31q-42 26 -159 117t-117 149q0 27 42 61t82 34q20 0 52 -23t134 -115l219 -194q69 -61 69 -109q0 -93 -101 -93 q-32 0 -174 142z"/>
<glyph glyph-name="uacute" horiz-adv-x="1245" unicode="ú" d="M817 366q-96 -175 -222.5 -278t-256.5 -103q-77 0 -155.5 81t-78.5 249q0 119 60 359q52 198 52 301q40 84 125 84q58 0 92.5 -38.5t34.5 -77.5q0 -71 -50 -202q-29 -78 -62.5 -220.5t-33.5 -182.5q0 -133 55 -133q87 0 235 167t193 342q45 171 80 224t99 53 q104 0 104 -116q0 -17 -17 -68q-59 -177 -59 -399q0 -260 88 -311q29 -17 29 -42q0 -36 -51 -68t-97 -32q-79 0 -121.5 111.5t-42.5 299.5zM855 1344h1q-23 -23 -164 -120q-52 -36 -62 -44q-8 -8 -27 -8q-39 0 -62 24.5t-23 60.5q0 59 143 168h-1q39 30 70 55 q175 141 221.5 171t68.5 30q26 0 58.5 -49t32.5 -74q0 -22 -28 -55.5t-69 -53.5q-46 -20 -159 -105z"/>
<glyph glyph-name="ucircumflex" horiz-adv-x="1245" unicode="û" d="M817 366q-96 -175 -222.5 -278t-256.5 -103q-77 0 -155.5 81t-78.5 249q0 119 60 359q52 198 52 301q40 84 125 84q58 0 92.5 -38.5t34.5 -77.5q0 -71 -50 -202q-29 -78 -62.5 -220.5t-33.5 -182.5q0 -133 55 -133q87 0 235 167t193 342q45 171 80 224t99 53 q104 0 104 -116q0 -17 -17 -68q-59 -177 -59 -399q0 -260 88 -311q29 -17 29 -42q0 -36 -51 -68t-97 -32q-79 0 -121.5 111.5t-42.5 299.5zM734 1510q-39 -38 -66 -69q-28 -32 -53 -57h1q-11 -15 -50 -50q-41 -38 -104 -105q-37 -39 -84 -39q-36 0 -54 16.5t-18 83.5 q0 56 63 108q15 13 27 25l73 71q64 61 122 133q106 132 170 132q68 0 163 -194q26 -50 53 -82q5 -5 22 -29q37 -54 88 -106q34 -35 42.5 -53t8.5 -48q0 -32 -30 -63.5t-70 -31.5q-66 0 -146 123q-13 22 -65 86q-73 89 -93 149z"/>
<glyph glyph-name="udieresis" horiz-adv-x="1245" unicode="ü" d="M817 366q-96 -175 -222.5 -278t-256.5 -103q-77 0 -155.5 81t-78.5 249q0 119 60 359q52 198 52 301q40 84 125 84q58 0 92.5 -38.5t34.5 -77.5q0 -71 -50 -202q-29 -78 -62.5 -220.5t-33.5 -182.5q0 -133 55 -133q87 0 235 167t193 342q45 171 80 224t99 53 q104 0 104 -116q0 -17 -17 -68q-59 -177 -59 -399q0 -260 88 -311q29 -17 29 -42q0 -36 -51 -68t-97 -32q-79 0 -121.5 111.5t-42.5 299.5zM526 1209q-43 0 -93.5 25t-50.5 55q0 149 104 149q79 0 126.5 -41t47.5 -116q0 -72 -134 -72zM885 1235q-50 0 -87.5 34.5 t-37.5 80.5q0 57 30.5 78.5t101.5 38.5l17 5q13 4 27 4q28 0 54 -18q38 -26 38 -87q0 -136 -143 -136z"/>
<glyph glyph-name="yacute" horiz-adv-x="1206" unicode="ý" d="M1078 589q-16 -243 -56.5 -471.5t-119 -414.5t-169 -253.5t-215.5 -67.5q-133 0 -256 51q-106 44 -184.5 118t-78.5 125q0 47 23.5 75t61.5 28q33 0 55 -28q128 -165 372 -165q99 0 191 207t116 497q-309 -244 -476 -244q-108 0 -171 86t-63 207t56.5 351.5t96 286 t128.5 55.5q48 0 74 -41.5t26 -91.5q0 -15 -72 -169q-88 -188 -88 -324q0 -70 19.5 -106.5t40.5 -36.5q48 0 116.5 29t161 100.5t119.5 108.5t43 95.5t25 257.5q5 116 11.5 146t35.5 55t78 25q66 0 93.5 -28t27.5 -132zM908 1304h1q-23 -23 -164 -120q-52 -36 -62 -44 q-8 -8 -27 -8q-39 0 -62 24.5t-23 60.5q0 59 143 168h-1q39 30 70 55q175 141 221.5 171t68.5 30q26 0 58.5 -49t32.5 -74q0 -22 -28 -55.5t-69 -53.5q-46 -20 -159 -105z"/>
<glyph glyph-name="thorn" horiz-adv-x="1320" unicode="þ" d="M932 884q-117 0 -307 -233t-190 -386q0 -25 29 -48t72 -23q128 0 292 193.5t164 379.5q0 62 -19 89.5t-41 27.5zM340 45q-14 -54 -52 -361q-26 -205 -35.5 -248.5t-50.5 -88t-76 -44.5q-40 0 -92 40.5t-52 67.5q0 57 25 152q160 640 199 1303q12 172 30.5 364t28.5 221 t53 61.5t93 32.5q47 0 73 -34t26 -176q0 -141 -86 -650q250 426 547 426q112 0 190.5 -80t78.5 -201q0 -323 -250.5 -587.5t-495.5 -264.5q-98 0 -154 67z"/>
<glyph glyph-name="dotlessi" horiz-adv-x="588" unicode="ı" d="M166 562q10 53 18 101q32 182 32 208q0 74 32.5 124t90.5 50q68 0 106 -32t38 -72t-37 -165l-6 -22q-55 -193 -66 -315t-11 -197q0 -61 21 -163q3 -18 3 -30q0 -23 -43.5 -62t-93.5 -39q-132 0 -132 200q0 170 48 414z"/>
<glyph glyph-name="OE" horiz-adv-x="2364" unicode="Œ" d="M1165 467l59 400q32 179 33 306q-118 92 -281 92q-193 0 -400 -279t-207 -548q0 -123 73 -205t168 -82q297 0 555 316zM1435 771q66 0 185.5 15t168.5 27q144 35 223 35q158 0 158 -94q0 -101 -117 -127q-20 -8 -146 -21q-30 -3 -49 -6q-37 -6 -94 -12 q-329 -38 -346.5 -57.5t-39 -162t-21.5 -189.5q4 -32 41 -32q163 0 510 68q137 29 180 29q126 -17 126 -123q0 -47 -29 -70q-105 -48 -277 -56q-163 -9 -332 -34q-194 -32 -274 -32q-136 0 -172.5 27.5t-44.5 136.5q-113 -84 -233 -123t-305 -39q-169 0 -300 162.5 t-131 335.5q0 204 125 458t322.5 415t412.5 161q218 0 366 -79l84 -6q31 0 254.5 24t401.5 57q30 5 42 6l16 1q14 1 26 1q154 0 154 -125q0 -36 -31.5 -70.5t-88.5 -34.5q-21 0 -48 2t-44.5 -2t-34.5 -7q-19 -3 -35 -7q-45 -11 -187 -24q-103 0 -206.5 -7t-121 -20.5 t-22.5 -68.5q-5 -50 -36 -175q-25 -96 -30 -157z"/>
<glyph glyph-name="oe" horiz-adv-x="1735" unicode="œ" d="M508 823q-72 -72 -127.5 -205.5t-55.5 -265.5q0 -83 26 -137t69 -54q108 0 229 145.5t121 331.5q0 104 -38.5 170t-105.5 66q-61 0 -117 -50zM995 493q16 11 78 48q101 59 199.5 158.5t98.5 152.5q0 28 -18 50t-33 22q-83 0 -181.5 -126.5t-143.5 -304.5zM772 140v-4 q-186 -184 -365 -184q-136 0 -223.5 108.5t-87.5 266.5q0 275 163 516.5t385 241.5q200 0 299 -203q8 8 14 15q180 230 412 230q88 0 145 -74.5t57 -158.5q0 -128 -93.5 -257t-465.5 -331q-30 -17 -30 -42q0 -35 41.5 -66t114.5 -31q171 0 389 228q38 40 74 40q70 0 70 -78 q0 -109 -184 -256t-386 -147q-241 0 -329 186z"/>
<glyph glyph-name="Scaron" horiz-adv-x="1304" unicode="Š" d="M1059 1075q0 99 -51 137.5t-150 38.5q-169 0 -313.5 -82.5t-144.5 -181.5q0 -63 54.5 -107.5t281.5 -110.5q238 -69 353.5 -151.5t115.5 -198.5q0 -193 -294 -353.5t-611 -160.5q-103 0 -165 43t-62 106q0 50 28 93t67 43q24 0 44 -8q105 -45 196 -45q156 0 350.5 87.5 t194.5 171.5q0 35 -48.5 67.5t-197.5 81.5q-217 71 -326.5 117t-166 120.5t-56.5 179.5q0 187 218 348t512 161q169 0 266.5 -67t97.5 -153q0 -176 -193 -176zM1074 1828q-108 -116 -160 -194q-21 -31 -89 -31q-42 0 -78.5 38t-115.5 172q-50 82 -131 185q-26 33 -26 64 q0 90 93 90q45 0 74.5 -17.5t77 -90.5t57.5 -94q7 -13 39.5 -61t41.5 -54q12 11 48 57q47 58 132 138.5t126 80.5q26 0 52 -28.5t26 -53.5q0 -51 -126 -162q-39 -32 -41 -39z"/>
<glyph glyph-name="scaron" horiz-adv-x="865" unicode="š" d="M584 254q-4 54 -172 132q-206 99 -263 170.5t-57 155.5q0 177 198.5 309.5t370.5 132.5q169 0 169 -147q0 -39 -38.5 -70t-65.5 -31q-11 0 -39 14t-43 14q-89 0 -196 -60t-107 -140q0 -39 38 -75.5t155 -91.5q173 -82 228 -148t55 -146q0 -146 -197.5 -243.5 t-443.5 -97.5q-181 0 -181 131q0 48 38 82t85 34q19 0 59 -14q40 -15 74 -15q94 0 197 30t136 74zM852 1485q-108 -116 -160 -194q-21 -31 -89 -31q-42 0 -78.5 38t-115.5 172q-50 82 -131 185q-26 33 -26 64q0 90 93 90q45 0 74.5 -17.5t77 -90.5t57.5 -94q7 -13 39.5 -61 t41.5 -54q12 11 48 57q47 58 132 138.5t126 80.5q26 0 52 -28.5t26 -53.5q0 -51 -126 -162q-39 -32 -41 -39z"/>
<glyph glyph-name="Ydieresis" horiz-adv-x="1370" unicode="Ÿ" d="M1152 976q-261 -271 -278 -311q-31 -84 -71 -553q-7 -104 -22.5 -121t-58 -32.5t-64.5 -15.5q-111 0 -111 150q0 67 30 253q30 185 30 259q0 43 -12 80q-83 89 -202 250q-138 184 -197 228q-118 85 -149.5 130.5t-31.5 82.5q0 23 43.5 59t79.5 36q151 0 471 -428 q106 -144 146 -180q38 41 78 90q39 49 80 90q242 249 326 365q80 112 177 112q44 0 72 -36t28 -75q0 -59 -364 -433zM672 1606q-43 0 -93.5 25t-50.5 55q0 149 104 149q79 0 126.5 -41t47.5 -116q0 -72 -134 -72zM1031 1632q-50 0 -87.5 34.5t-37.5 80.5q0 57 30.5 78.5 t101.5 38.5l17 5q13 4 27 4q28 0 54 -18q38 -26 38 -87q0 -136 -143 -136z"/>
<glyph glyph-name="circumflex" horiz-adv-x="797" unicode="ˆ" d="M432 1415q-39 -38 -66 -69q-28 -32 -53 -57h1q-11 -15 -50 -50q-41 -38 -104 -105q-37 -39 -84 -39q-36 0 -54 16.5t-18 83.5q0 56 63 108q15 13 27 25l73 71q64 61 122 133q106 132 170 132q68 0 163 -194q26 -50 53 -82q5 -5 22 -29q37 -54 88 -106q34 -35 42.5 -53 t8.5 -48q0 -32 -30 -63.5t-70 -31.5q-66 0 -146 123q-13 22 -65 86q-73 89 -93 149z"/>
<glyph glyph-name="caron" horiz-adv-x="784" unicode="ˇ" d="M621 1300q-108 -116 -160 -194q-21 -31 -89 -31q-42 0 -78.5 38t-115.5 172q-50 82 -131 185q-26 33 -26 64q0 90 93 90q45 0 74.5 -17.5t77 -90.5t57.5 -94q7 -13 39.5 -61t41.5 -54q12 11 48 57q47 58 132 138.5t126 80.5q26 0 52 -28.5t26 -53.5q0 -51 -126 -162 q-39 -32 -41 -39z"/>
<glyph glyph-name="ring" horiz-adv-x="748" unicode="˚" d="M357 1414q-19 -2 -35 -39t-16 -75q0 -34 25.5 -70.5t46.5 -36.5q8 0 60.5 24t52.5 105q0 5 -3 17q-4 12 -7 26l-7 24q-4 11 -4 14q0 8 -28.5 13t-40.5 5q-24 0 -44 -7zM652 1417q21 -48 21 -86q0 -100 -98.5 -184t-205.5 -84q-109 0 -180.5 71.5t-71.5 172.5 q0 90 89.5 175t238.5 85q37 0 110.5 -34.5t96.5 -115.5z"/>
<glyph glyph-name="tilde" horiz-adv-x="936" unicode="˜" d="M546 1129q-26 12 -77 59l-22 20q-12 9 -25 23q-55 54 -83 54q-51 0 -127 -90q-61 -85 -85 -98.5t-55 -13.5q-82 0 -82 80q0 78 116.5 196.5t204.5 118.5q74 0 113.5 -18.5t80.5 -59.5q67 -67 111 -92.5t52 -25.5q34 0 79 62q22 32 35 48q6 7 11 15q34 43 70 43 q77 0 77 -85q0 -47 -82 -158t-174 -111q-88 0 -138 33z"/>
<glyph glyph-name="endash" horiz-adv-x="1645" unicode="–" d="M392 505q-32 0 -67 23.5t-35 60.5q0 19 23.5 49t50 36t144.5 10q19 0 122 9.5t175 9.5q39 0 120 -11q74 -10 105 -10q46 0 158 21l-1 -1q116 22 177 22q218 0 218 -125q0 -52 -19.5 -70t-80.5 -18q-23 0 -68 6q-46 8 -54 8q-38 0 -128 -14q-20 -4 -39 -6q-19 -3 -38 -7 q-70 -10 -191 -10l-368 -4q-29 0 -65 7q-29 6 -66 17l-9 3z"/>
<glyph glyph-name="emdash" horiz-adv-x="2337" unicode="—" d="M345 486q-26 33 -26 64q0 63 41 92.5t148 29.5q48 0 109 10q146 24 361 24l616 -9l424 19q64 0 114 -20t50 -60q0 -24 -28.5 -79.5t-72.5 -55.5h-339l-141 -5q-45 0 -75 -4l-422 9q-77 0 -587 -25q-70 -4 -99 -4q-26 0 -73 14z"/>
<glyph glyph-name="quoteleft" horiz-adv-x="633" unicode="‘" d="M466 1238q-17 -22 -93 -63h1q-35 -39 -35 -105q0 -18 24 -59q33 -55 33 -82t-26.5 -63.5t-62.5 -36.5q-41 0 -73 22.5t-73 93.5t-41 114q0 61 40 134v-1q101 179 223 226q57 33 89 33q31 0 69 -43.5t38 -61.5q0 -35 -58 -68q-29 -14 -55 -40z"/>
<glyph glyph-name="quotesinglbase" horiz-adv-x="481" unicode="‚" d="M410 137q0 -50 -29 -161q-26 -103 -73 -184v1q-49 -92 -129 -92q-46 0 -78 26t-32 64q0 22 16.5 54.5t35.5 49.5q79 68 79 185q0 39 -68 98q-48 42 -48 59l-7 50q0 23 5 48q7 23 51 45.5t77 22.5q40 0 139 -107l12 -14q33 -50 37 -71q12 -28 12 -73v-1z"/>
<glyph glyph-name="quotedblleft" horiz-adv-x="1188" unicode="“" d="M868 1454q57 33 89 33q31 0 69 -43t38 -63q0 -28 -32 -50t-38 -24q-5 -2 -15 -10q-6 -6 -51 -40l-47 -34q-57 -40 -57 -117q0 -23 21 -55q38 -57 38 -84q0 -30 -28.5 -66t-62.5 -36q-77 0 -131 88.5t-54 140.5q0 77 84 199t177 161zM519 1384q0 -44 -100 -79 q-59 -18 -106 -74t-47 -92q0 -4 81 -59q31 -30 31 -68q0 -33 -25.5 -63.5t-62.5 -30.5q-70 0 -146.5 76t-76.5 132q0 48 34.5 123.5t77.5 102.5q15 9 63 52q63 57 84.5 73.5t81.5 16.5q81 0 97 -21.5t16 -56.5q0 -15 -2 -32z"/>
<glyph glyph-name="quotedblright" horiz-adv-x="1172" unicode="”" d="M235 1099q41 69 41 111q0 19 -43 67q-59 67 -59 85q0 138 93 138q42 0 82 -42l30 -31q55 -38 78 -73.5t23 -99.5q0 -66 -37.5 -171.5t-58.5 -121.5t-95 -54t-95 -38q-41 0 -73.5 30t-32.5 68q0 45 24 69t83 44q32 11 40 19zM748 1479q12 24 55.5 46t77.5 22 q22 0 78.5 -49t69.5 -70q51 -58 51 -145q0 -99 -64 -268t-169 -169q-46 0 -77 24.5t-31 64.5q0 56 48 104q83 72 83 189q0 21 -58 82q-35 36 -50.5 53.5t-15.5 95.5v9q0 4 2 11z"/>
<glyph glyph-name="dagger" horiz-adv-x="850" unicode="†" d="M340 790q-11 0 -94 -13q-83 -14 -119 -14q-54 0 -89 30t-35 86q0 109 332 109l32 -1q4 0 7 1l6 87q6 46 18 92t28.5 90.5t35 78t37.5 54t34 28t30 7.5q39 0 69.5 -26.5t30.5 -52.5q0 -15 -26 -79q-27 -67 -32 -83q-1 -10 -7 -31q-25 -89 -31 -137q57 3 68 4q78 13 106 13 q40 0 71 -33t31 -65q0 -104 -134 -104h-106q-56 0 -56.5 -17t-24.5 -316t-24 -305q-2 -31 -33.5 -56t-72.5 -25t-88.5 52.5t-47.5 86.5q0 4 16 66q15 57 25 149q10 103 24 185q19 111 19 139z"/>
<glyph glyph-name="daggerdbl" horiz-adv-x="983" unicode="‡" d="M781 478q-11 -9 -129 -25q-110 -15 -110 -22q0 -16 -5 -28t-5 -20q0 -24 -6 -103q-7 -80 -7 -94q0 -50 -21.5 -72t-77.5 -22q-88 0 -119 77q0 12 13 94q12 81 12 96q0 27 -19 27q-16 0 -101 -14q-86 -14 -114 -14q-100 0 -100 99q0 48 56.5 68.5t170.5 30.5 q120 11 142 36q0 74 13 135.5t19 162.5q-108 -5 -153 -16q-48 -11 -75 -11q-49 0 -82 24t-33 70q0 42 26.5 63.5t101 30.5t153.5 16q78 8 91 14q15 120 15 289q0 25 37.5 55t77.5 30q106 0 106 -100q0 -22 -19 -117q-21 -105 -22 -122q28 3 80 19q70 22 116 22 q59 0 91.5 -15t32.5 -65q0 -18 -21 -48.5t-44.5 -38.5t-100.5 -27.5t-113 -19.5q-37 0 -60 -13q-7 -37 -29 -188q-5 -35 -10 -57q-6 -27 -6 -59q32 0 97 12q186 33 222 33q40 0 67 -35t27 -75q0 -32 -40 -62t-93 -30q-14 0 -26 5q-12 4 -26 4z"/>
<glyph glyph-name="ellipsis" horiz-adv-x="1659" unicode="…" d="M1302 8q-55 0 -98.5 42.5t-43.5 88.5q0 40 49 84.5t99 44.5q53 0 98 -39.5t45 -91.5q0 -51 -44.5 -90t-104.5 -39zM793 -2q-56 0 -95.5 27t-39.5 60q0 96 50.5 140.5t106.5 44.5q34 0 64.5 -33.5t30.5 -63.5q0 -175 -117 -175zM270 15q-32 0 -66.5 18t-41.5 74l-7 53 q0 62 66 87t138 25q83 0 83 -52q0 -67 -51.5 -136t-120.5 -69z"/>
<glyph glyph-name="perthousand" horiz-adv-x="2097" unicode="‰" d="M1121 538q-49 0 -117 -69.5t-68 -127.5q0 -26 13 -26t95.5 23.5t99.5 84t17 88.5q0 5 -16.5 16t-23.5 11zM1337 549q4 -12 4 -33q0 -113 -88 -215t-234 -137q-25 -10 -87 -10q-63 0 -130.5 60.5t-67.5 110.5q0 74 115 221t214 147q182 0 274 -144zM1758 565 q-55 0 -141.5 -79t-86.5 -174q0 -31 69 -31q50 0 142.5 89t92.5 132q0 14 -28.5 38.5t-47.5 24.5zM1712 176q-105 -64 -128 -64q-84 0 -163.5 40.5t-79.5 167.5q0 31 43.5 146t74.5 142.5t85.5 67.5t133.5 40h28q125 0 175.5 -17.5t96 -81.5t45.5 -114q0 -104 -64.5 -177.5 t-246.5 -149.5zM299 1005q117 0 162 172q-64 4 -104 23q-30 -33 -60.5 -87t-30.5 -81q5 -23 33 -27zM607 227q0 -5 -6 -14q-53 -77 -57 -112q-3 -23 -7 -40q-53 -31 -89 -31q-44 0 -87.5 47t-43.5 83q0 12 59.5 121.5t121.5 205.5q131 205 265 503q37 84 73 156 q-46 15 -135 15q-71 0 -88 -4q-4 -2 -4 -10q0 -77 -47.5 -157.5t-98.5 -108.5t-143 -28q-226 0 -226 185q0 122 152 264q-1 2 5 9l14 15q40 50 60 65t51 15q120 0 168 -67q11 -17 26 -29q21 2 74 11q49 8 67 8q97 0 234.5 -13t165.5 -22.5t53.5 -37.5t25.5 -50 q0 -35 -23.5 -56t-68.5 -47q-80 -46 -216 -330q-38 -76 -150 -278q-72 -130 -125 -268z"/>
<glyph glyph-name="guilsinglleft" horiz-adv-x="805" unicode="‹" d="M343 609l313 -223q56 -42 56 -102q0 -37 -29.5 -69t-58.5 -32q-33 0 -129 72t-133 105q-127 110 -230 139q-61 17 -83 36.5t-22 56.5q0 65 48 102q167 70 314 160l154 96q123 109 162 109q42 0 68.5 -27.5t26.5 -71.5q0 -65 -159 -172t-276 -166q-12 -6 -22 -13z"/>
<glyph glyph-name="guilsinglright" horiz-adv-x="809" unicode="›" d="M804 634q0 -82 -123 -130q-17 -11 -29 -15q-13 -4 -26 -17q-55 -37 -136 -86l-108 -74q-153 -162 -217 -162q-46 0 -77 33t-31 74q0 101 439 355q-44 35 -239 173q-98 69 -120.5 92.5t-22.5 47.5q0 31 38.5 73.5t69.5 42.5q57 0 134 -87q130 -127 367 -245q78 -38 81 -73 v-2z"/>
<glyph glyph-name="Euro" horiz-adv-x="1685" unicode="€" d="M1532 250q0 -32 -45.5 -90.5t-209.5 -123.5t-376 -65q-203 0 -336 103t-188 336q-4 4 -34 4q-40 0 -131 -6q-14 -1 -27 -1q-61 0 -88 26.5t-27 56.5q0 44 27 86.5t75 42.5q143 0 192 9l-1 -1q16 1 25 49q13 64 30 106l-21 1h-157q-103 0 -103 91q0 116 135 116l230 -5 q133 260 311.5 366.5t326.5 106.5q163 0 282.5 -73.5t119.5 -128.5q0 -46 -44.5 -93.5t-95.5 -47.5q-23 0 -110 76q-63 54 -189 54q-88 0 -183.5 -71.5t-148.5 -182.5q190 0 370 15q17 1 32 1q51 0 75.5 -18.5t24.5 -74.5q0 -119 -145 -119h-386q-61 0 -78 -30l2 2 q-16 -32 -36 -126l434 17q121 0 121 -95q0 -47 -47 -80t-94.5 -35t-98.5 -2q-60 0 -142.5 1.5t-124.5 1.5q-48 0 -52 -2q20 -110 103.5 -186.5t185.5 -76.5q223 0 373 102q125 83 162 83q39 0 60.5 -20t21.5 -93v-6z"/>
<glyph glyph-name="trademark" horiz-adv-x="2116" unicode="™" d="M1744 1164q-23 -21 -69 -102q-90 -159 -135 -203.5t-87 -44.5q-41 0 -67 23.5t-51 55.5q-32 48 -69 85q-37 36 -72 75l-31 -145q-22 -108 -51.5 -155.5t-86.5 -47.5q-41 0 -81 32.5t-40 58.5q0 61 129 382q23 58 23 60q0 13 -7 13q-40 0 -140 -9l-149 -13 q-50 -5 -55.5 -9.5t-21.5 -47t-38 -124.5t-22 -134q0 -14 8 -37t8 -46q0 -42 -41.5 -84t-71.5 -42q-109 0 -109 169q0 134 50 267q16 43 26 89q-33 -3 -195 -59q-28 -10 -44 -10q-126 0 -126 83q0 36 50.5 82t148.5 57l164 17q39 4 77 10q26 28 80 28q16 0 49 -14 q6 -3 22 -8q10 0 67 9q14 3 78 8q74 4 133 21q45 13 62 13t106.5 -24.5t100.5 -60.5q1 -2 1 -8l-2 -36q-1 -12 38 -85t99.5 -133t72.5 -60q0 6 114.5 179.5t165 212.5t103.5 39q36 0 64 -22t28 -48q0 -28 -5 -63q-9 -74 -9 -134q0 -56 18 -152t54 -116q66 -38 66 -106 q0 -42 -33 -64.5t-78 -22.5q-191 0 -219 401z"/>
</font>
</defs>
</svg>
